<?xml version="1.0" encoding="utf-8"?>
<svg version="1.1" xmlns:xlink="http://www.w3.org/1999/xlink" width="11px" height="5px" xmlns="http://www.w3.org/2000/svg">
  <defs>
    <mask fill="white" id="clip14">
      <path d="M 10.5013333333333 0.0938461538461531  C 10.384 0.0938461538461531  10.2813333333333 0.13076923076923  10.1933333333333 0.204615384615385  L 5.5 4.04461538461538  L 0.806666666666666 0.204615384615384  C 0.718666666666666 0.13076923076923  0.615999999999999 0.0938461538461531  0.498666666666666 0.0938461538461531  C 0.381333333333333 0.0938461538461531  0.278666666666666 0.13076923076923  0.190666666666666 0.204615384615384  C 0.102666666666666 0.278461538461538  0.0586666666666659 0.364615384615384  0.0586666666666659 0.463076923076923  C 0.0586666666666659 0.561538461538461  0.0977826666666659 0.643593846153846  0.175999999999999 0.709230769230769  L 5.17733333333333 4.79538461538462  C 5.26533333333333 4.86923076923077  5.372884 4.90615384615385  5.5 4.90615384615385  C 5.627116 4.90615384615385  5.73466666666667 4.86923076923077  5.82266666666667 4.79538461538462  L 10.824 0.721538461538461  C 10.9022173333333 0.647692307692307  10.9413333333333 0.559483076923077  10.9413333333333 0.456923076923076  C 10.9413333333333 0.354363076923076  10.8973333333333 0.268209230769231  10.8093333333333 0.198461538461538  C 10.7213333333333 0.128713846153845  10.6186666666667 0.0938461538461531  10.5013333333333 0.0938461538461531  Z " fill-rule="evenodd" />
    </mask>
  </defs>
  <g transform="matrix(1 0 0 1 -92 -14 )">
    <path d="M 10.5013333333333 0.0938461538461531  C 10.384 0.0938461538461531  10.2813333333333 0.13076923076923  10.1933333333333 0.204615384615385  L 5.5 4.04461538461538  L 0.806666666666666 0.204615384615384  C 0.718666666666666 0.13076923076923  0.615999999999999 0.0938461538461531  0.498666666666666 0.0938461538461531  C 0.381333333333333 0.0938461538461531  0.278666666666666 0.13076923076923  0.190666666666666 0.204615384615384  C 0.102666666666666 0.278461538461538  0.0586666666666659 0.364615384615384  0.0586666666666659 0.463076923076923  C 0.0586666666666659 0.561538461538461  0.0977826666666659 0.643593846153846  0.175999999999999 0.709230769230769  L 5.17733333333333 4.79538461538462  C 5.26533333333333 4.86923076923077  5.372884 4.90615384615385  5.5 4.90615384615385  C 5.627116 4.90615384615385  5.73466666666667 4.86923076923077  5.82266666666667 4.79538461538462  L 10.824 0.721538461538461  C 10.9022173333333 0.647692307692307  10.9413333333333 0.559483076923077  10.9413333333333 0.456923076923076  C 10.9413333333333 0.354363076923076  10.8973333333333 0.268209230769231  10.8093333333333 0.198461538461538  C 10.7213333333333 0.128713846153845  10.6186666666667 0.0938461538461531  10.5013333333333 0.0938461538461531  Z " fill-rule="nonzero" fill="#555555" stroke="none" transform="matrix(1 0 0 1 92 14 )" />
    <path d="M 10.5013333333333 0.0938461538461531  C 10.384 0.0938461538461531  10.2813333333333 0.13076923076923  10.1933333333333 0.204615384615385  L 5.5 4.04461538461538  L 0.806666666666666 0.204615384615384  C 0.718666666666666 0.13076923076923  0.615999999999999 0.0938461538461531  0.498666666666666 0.0938461538461531  C 0.381333333333333 0.0938461538461531  0.278666666666666 0.13076923076923  0.190666666666666 0.204615384615384  C 0.102666666666666 0.278461538461538  0.0586666666666659 0.364615384615384  0.0586666666666659 0.463076923076923  C 0.0586666666666659 0.561538461538461  0.0977826666666659 0.643593846153846  0.175999999999999 0.709230769230769  L 5.17733333333333 4.79538461538462  C 5.26533333333333 4.86923076923077  5.372884 4.90615384615385  5.5 4.90615384615385  C 5.627116 4.90615384615385  5.73466666666667 4.86923076923077  5.82266666666667 4.79538461538462  L 10.824 0.721538461538461  C 10.9022173333333 0.647692307692307  10.9413333333333 0.559483076923077  10.9413333333333 0.456923076923076  C 10.9413333333333 0.354363076923076  10.8973333333333 0.268209230769231  10.8093333333333 0.198461538461538  C 10.7213333333333 0.128713846153845  10.6186666666667 0.0938461538461531  10.5013333333333 0.0938461538461531  Z " stroke-width="2" stroke="#4165d7" fill="none" transform="matrix(1 0 0 1 92 14 )" mask="url(#clip14)" />
  </g>
</svg>