<?xml version="1.0" encoding="utf-8"?>
<svg version="1.1" xmlns:xlink="http://www.w3.org/1999/xlink" width="14px" height="14px" xmlns="http://www.w3.org/2000/svg">
  <g transform="matrix(1 0 0 1 -12 -10 )">
    <path d="M 13 5  L 1 5  L 1 13  L 13 13  L 13 2  L 11 2  L 11 2.5  C 11 2.646  10.9531666666667 2.76583333333333  10.8595 2.8595  C 10.7658333333333 2.95316666666667  10.646 3  10.5 3  C 10.354 3  10.2341666666667 2.95316666666667  10.1405 2.8595  C 10.0468333333333 2.76583333333333  10 2.646  10 2.5  L 10 2  L 4 2  L 4 2.5  C 4 2.646  3.95316666666667 2.76583333333333  3.8595 2.8595  C 3.76583333333333 2.95316666666667  3.646 3  3.5 3  C 3.354 3  3.23416666666667 2.95316666666667  3.1405 2.8595  C 3.04683333333333 2.76583333333333  3 2.646  3 2.5  L 3 2  L 1 2  L 1 4  L 13 4  L 13 5  Z M 4 0.5  L 4 1  L 10 1  L 10 0.5  C 10 0.354  10.0468333333333 0.234166666666667  10.1405 0.1405  C 10.2341666666667 0.0468333333333335  10.354 0  10.5 0  C 10.646 0  10.7658333333333 0.0468333333333333  10.8595 0.1405  C 10.9531666666667 0.234166666666667  11 0.354  11 0.5  L 11 1  L 13.5 1  C 13.646 1  13.7658333333333 1.04683333333333  13.8595 1.1405  C 13.9531666666667 1.23416666666667  14 1.354  14 1.5  L 14 13.5  C 14 13.646  13.9531666666667 13.7658333333333  13.8595 13.8595  C 13.7658333333333 13.9531666666667  13.646 14  13.5 14  L 0.5 14  C 0.354 14  0.234166666666667 13.9531666666667  0.1405 13.8595  C 0.0468333333333335 13.7658333333333  0 13.646  0 13.5  L 0 1.5  C 0 1.354  0.0468333333333333 1.23416666666667  0.1405 1.1405  C 0.234166666666667 1.04683333333333  0.354 1  0.5 1  L 3 1  L 3 0.5  C 3 0.354  3.04683333333333 0.234166666666667  3.1405 0.1405  C 3.23416666666667 0.0468333333333335  3.354 0  3.5 0  C 3.646 0  3.76583333333333 0.0468333333333333  3.8595 0.1405  C 3.95316666666667 0.234166666666667  4 0.354  4 0.5  Z M 3.1405 7.1405  C 3.23416666666667 7.04683333333333  3.354 7  3.5 7  L 4.5 7  C 4.646 7  4.76583333333333 7.04683333333333  4.8595 7.1405  C 4.95316666666667 7.23416666666667  5 7.354  5 7.5  C 5 7.646  4.95316666666667 7.76583333333334  4.8595 7.8595  C 4.76583333333333 7.95316666666667  4.646 8  4.5 8  L 3.5 8  C 3.354 8  3.23416666666667 7.95316666666667  3.1405 7.8595  C 3.04683333333333 7.76583333333334  3 7.646  3 7.5  C 3 7.354  3.04683333333333 7.23416666666667  3.1405 7.1405  Z M 3.1405 10.1405  C 3.23416666666667 10.0468333333333  3.354 10  3.5 10  L 4.5 10  C 4.646 10  4.76583333333333 10.0468333333333  4.8595 10.1405  C 4.95316666666667 10.2341666666667  5 10.354  5 10.5  C 5 10.646  4.95316666666667 10.7658333333333  4.8595 10.8595  C 4.76583333333333 10.9531666666667  4.646 11  4.5 11  L 3.5 11  C 3.354 11  3.23416666666667 10.9531666666667  3.1405 10.8595  C 3.04683333333333 10.7658333333333  3 10.646  3 10.5  C 3 10.354  3.04683333333333 10.2341666666667  3.1405 10.1405  Z M 6.1405 7.1405  C 6.23416666666667 7.04683333333333  6.354 7  6.5 7  L 7.5 7  C 7.646 7  7.76583333333333 7.04683333333333  7.8595 7.1405  C 7.95316666666667 7.23416666666667  8 7.354  8 7.5  C 8 7.646  7.95316666666667 7.76583333333334  7.8595 7.8595  C 7.76583333333334 7.95316666666667  7.646 8  7.5 8  L 6.5 8  C 6.354 8  6.23416666666667 7.95316666666667  6.1405 7.8595  C 6.04683333333333 7.76583333333334  6 7.646  6 7.5  C 6 7.354  6.04683333333333 7.23416666666667  6.1405 7.1405  Z M 6.1405 10.1405  C 6.23416666666667 10.0468333333333  6.354 10  6.5 10  L 7.5 10  C 7.646 10  7.76583333333333 10.0468333333333  7.8595 10.1405  C 7.95316666666667 10.2341666666667  8 10.354  8 10.5  C 8 10.646  7.95316666666667 10.7658333333333  7.8595 10.8595  C 7.76583333333334 10.9531666666667  7.646 11  7.5 11  L 6.5 11  C 6.354 11  6.23416666666667 10.9531666666667  6.1405 10.8595  C 6.04683333333333 10.7658333333333  6 10.646  6 10.5  C 6 10.354  6.04683333333333 10.2341666666667  6.1405 10.1405  Z M 9.1405 7.1405  C 9.23416666666667 7.04683333333333  9.354 7  9.5 7  L 10.5 7  C 10.646 7  10.7658333333333 7.04683333333333  10.8595 7.1405  C 10.9531666666667 7.23416666666667  11 7.354  11 7.5  C 11 7.646  10.9531666666667 7.76583333333334  10.8595 7.8595  C 10.7658333333333 7.95316666666667  10.646 8  10.5 8  L 9.5 8  C 9.354 8  9.23416666666667 7.95316666666667  9.1405 7.8595  C 9.04683333333333 7.76583333333334  9 7.646  9 7.5  C 9 7.354  9.04683333333334 7.23416666666667  9.1405 7.1405  Z M 9.1405 10.1405  C 9.23416666666667 10.0468333333333  9.354 10  9.5 10  L 10.5 10  C 10.646 10  10.7658333333333 10.0468333333333  10.8595 10.1405  C 10.9531666666667 10.2341666666667  11 10.354  11 10.5  C 11 10.646  10.9531666666667 10.7658333333333  10.8595 10.8595  C 10.7658333333333 10.9531666666667  10.646 11  10.5 11  L 9.5 11  C 9.354 11  9.23416666666667 10.9531666666667  9.1405 10.8595  C 9.04683333333333 10.7658333333333  9 10.646  9 10.5  C 9 10.354  9.04683333333334 10.2341666666667  9.1405 10.1405  Z " fill-rule="nonzero" fill="#c0c4cc" stroke="none" transform="matrix(1 0 0 1 12 10 )" />
  </g>
</svg>