<?xml version="1.0" encoding="utf-8"?>
<svg version="1.1" xmlns:xlink="http://www.w3.org/1999/xlink" width="13px" height="14px" xmlns="http://www.w3.org/2000/svg">
  <g transform="matrix(1 0 0 1 -11 -9 )">
    <path d="M 12.0714285714286 5  L 0.928571428571428 5  L 0.928571428571428 13  L 12 13  L 12 2  L 10.2142857142857 2  L 10.2142857142857 2.5  C 10.2142857142857 2.646  10.1707976190476 2.76583333333333  10.0838214285714 2.8595  C 9.99684523809524 2.95316666666667  9.88557142857143 3  9.75 3  C 9.61442857142857 3  9.50315476190476 2.95316666666667  9.41617857142857 2.8595  C 9.32920238095238 2.76583333333333  9.28571428571429 2.646  9.28571428571429 2.5  L 9.28571428571429 2  L 3.71428571428571 2  L 3.71428571428571 2.5  C 3.71428571428571 2.646  3.67079761904762 2.76583333333333  3.58382142857143 2.8595  C 3.49684523809524 2.95316666666667  3.38557142857143 3  3.25 3  C 3.11442857142857 3  3.00315476190476 2.95316666666667  2.91617857142857 2.8595  C 2.82920238095238 2.76583333333333  2.78571428571429 2.646  2.78571428571429 2.5  L 2.78571428571429 2  L 0.928571428571428 2  L 0.928571428571428 4  L 12.0714285714286 4  L 12.0714285714286 5  Z M 3.71428571428571 0.5  L 3.71428571428571 1  L 9.28571428571429 1  L 9.28571428571429 0.5  C 9.28571428571429 0.354  9.32920238095238 0.234166666666667  9.41617857142857 0.1405  C 9.50315476190476 0.0468333333333335  9.61442857142857 0  9.75 0  C 9.88557142857143 0  9.99684523809524 0.0468333333333333  10.0838214285714 0.1405  C 10.1707976190476 0.234166666666667  10.2142857142857 0.354  10.2142857142857 0.5  L 10.2142857142857 1  L 12.5357142857143 1  C 12.6712857142857 1  12.7825595238095 1.04683333333333  12.8695357142857 1.1405  C 12.9565119047619 1.23416666666667  13 1.354  13 1.5  L 13 13.5  C 13 13.646  12.9565119047619 13.7658333333333  12.8695357142857 13.8595  C 12.7825595238095 13.9531666666667  12.6712857142857 14  12.5357142857143 14  L 0.464285714285714 14  C 0.328714285714286 14  0.217440476190476 13.9531666666667  0.130464285714286 13.8595  C 0.0434880952380954 13.7658333333333  0 13.646  0 13.5  L 0 1.5  C 0 1.354  0.0434880952380952 1.23416666666667  0.130464285714286 1.1405  C 0.217440476190476 1.04683333333333  0.328714285714286 1  0.464285714285714 1  L 2.78571428571429 1  L 2.78571428571429 0.5  C 2.78571428571429 0.354  2.82920238095238 0.234166666666667  2.91617857142857 0.1405  C 3.00315476190476 0.0468333333333335  3.11442857142857 0  3.25 0  C 3.38557142857143 0  3.49684523809524 0.0468333333333333  3.58382142857143 0.1405  C 3.67079761904762 0.234166666666667  3.71428571428571 0.354  3.71428571428571 0.5  Z M 2.91617857142857 7.1405  C 3.00315476190476 7.04683333333333  3.11442857142857 7  3.25 7  L 4.17857142857143 7  C 4.31414285714286 7  4.42541666666667 7.04683333333333  4.51239285714286 7.1405  C 4.59936904761905 7.23416666666667  4.64285714285714 7.354  4.64285714285714 7.5  C 4.64285714285714 7.646  4.59936904761905 7.76583333333334  4.51239285714286 7.8595  C 4.42541666666667 7.95316666666667  4.31414285714286 8  4.17857142857143 8  L 3.25 8  C 3.11442857142857 8  3.00315476190476 7.95316666666667  2.91617857142857 7.8595  C 2.82920238095238 7.76583333333334  2.78571428571429 7.646  2.78571428571429 7.5  C 2.78571428571429 7.354  2.82920238095238 7.23416666666667  2.91617857142857 7.1405  Z M 2.91617857142857 10.1405  C 3.00315476190476 10.0468333333333  3.11442857142857 10  3.25 10  L 4.17857142857143 10  C 4.31414285714286 10  4.42541666666667 10.0468333333333  4.51239285714286 10.1405  C 4.59936904761905 10.2341666666667  4.64285714285714 10.354  4.64285714285714 10.5  C 4.64285714285714 10.646  4.59936904761905 10.7658333333333  4.51239285714286 10.8595  C 4.42541666666667 10.9531666666667  4.31414285714286 11  4.17857142857143 11  L 3.25 11  C 3.11442857142857 11  3.00315476190476 10.9531666666667  2.91617857142857 10.8595  C 2.82920238095238 10.7658333333333  2.78571428571429 10.646  2.78571428571429 10.5  C 2.78571428571429 10.354  2.82920238095238 10.2341666666667  2.91617857142857 10.1405  Z M 5.70189285714286 7.1405  C 5.78886904761905 7.04683333333333  5.90014285714286 7  6.03571428571429 7  L 6.96428571428571 7  C 7.09985714285714 7  7.21113095238095 7.04683333333333  7.29810714285714 7.1405  C 7.38508333333333 7.23416666666667  7.42857142857143 7.354  7.42857142857143 7.5  C 7.42857142857143 7.646  7.38508333333333 7.76583333333334  7.29810714285714 7.8595  C 7.21113095238096 7.95316666666667  7.09985714285715 8  6.96428571428571 8  L 6.03571428571429 8  C 5.90014285714286 8  5.78886904761905 7.95316666666667  5.70189285714286 7.8595  C 5.61491666666667 7.76583333333334  5.57142857142857 7.646  5.57142857142857 7.5  C 5.57142857142857 7.354  5.61491666666667 7.23416666666667  5.70189285714286 7.1405  Z M 5.70189285714286 10.1405  C 5.78886904761905 10.0468333333333  5.90014285714286 10  6.03571428571429 10  L 6.96428571428571 10  C 7.09985714285714 10  7.21113095238095 10.0468333333333  7.29810714285714 10.1405  C 7.38508333333333 10.2341666666667  7.42857142857143 10.354  7.42857142857143 10.5  C 7.42857142857143 10.646  7.38508333333333 10.7658333333333  7.29810714285714 10.8595  C 7.21113095238096 10.9531666666667  7.09985714285715 11  6.96428571428571 11  L 6.03571428571429 11  C 5.90014285714286 11  5.78886904761905 10.9531666666667  5.70189285714286 10.8595  C 5.61491666666667 10.7658333333333  5.57142857142857 10.646  5.57142857142857 10.5  C 5.57142857142857 10.354  5.61491666666667 10.2341666666667  5.70189285714286 10.1405  Z M 8.48760714285714 7.1405  C 8.57458333333333 7.04683333333333  8.68585714285714 7  8.82142857142857 7  L 9.75 7  C 9.88557142857143 7  9.99684523809524 7.04683333333333  10.0838214285714 7.1405  C 10.1707976190476 7.23416666666667  10.2142857142857 7.354  10.2142857142857 7.5  C 10.2142857142857 7.646  10.1707976190476 7.76583333333334  10.0838214285714 7.8595  C 9.99684523809524 7.95316666666667  9.88557142857143 8  9.75 8  L 8.82142857142857 8  C 8.68585714285715 8  8.57458333333333 7.95316666666667  8.48760714285714 7.8595  C 8.40063095238095 7.76583333333334  8.35714285714286 7.646  8.35714285714286 7.5  C 8.35714285714286 7.354  8.40063095238095 7.23416666666667  8.48760714285714 7.1405  Z M 8.48760714285714 10.1405  C 8.57458333333333 10.0468333333333  8.68585714285714 10  8.82142857142857 10  L 9.75 10  C 9.88557142857143 10  9.99684523809524 10.0468333333333  10.0838214285714 10.1405  C 10.1707976190476 10.2341666666667  10.2142857142857 10.354  10.2142857142857 10.5  C 10.2142857142857 10.646  10.1707976190476 10.7658333333333  10.0838214285714 10.8595  C 9.99684523809524 10.9531666666667  9.88557142857143 11  9.75 11  L 8.82142857142857 11  C 8.68585714285715 11  8.57458333333333 10.9531666666667  8.48760714285714 10.8595  C 8.40063095238095 10.7658333333333  8.35714285714286 10.646  8.35714285714286 10.5  C 8.35714285714286 10.354  8.40063095238095 10.2341666666667  8.48760714285714 10.1405  Z " fill-rule="nonzero" fill="#c0c4cc" stroke="none" transform="matrix(1 0 0 1 11 9 )" />
  </g>
</svg>