<?xml version="1.0" encoding="utf-8"?>
<svg version="1.1" xmlns:xlink="http://www.w3.org/1999/xlink" width="8px" height="6px" xmlns="http://www.w3.org/2000/svg">
  <g transform="matrix(1 0 0 1 -237 -1103 )">
    <path d="M 7.39892705882353 0.151135135135136  L 2.72065254901961 4.99783783783784  L 0.602378039215686 2.808  C 0.515378196078431 2.7180505945946  0.411632941176471 2.69038183783784  0.291162352941176 2.72497297297297  C 0.170691764705882 2.75956410810811  0.0953976470588234 2.83740194594595  0.0652799999999999 2.95848648648649  C 0.0351623529411765 3.07957102702703  0.0636134901960784 3.188544  0.150613333333333 3.28540540540541  L 2.72065254901961 5.94227027027027  L 7.86073098039216 0.628540540540541  C 7.9209662745098 0.559347891891893  7.94941741176471 0.479787243243244  7.94606431372549 0.389837837837839  C 7.94272125490196 0.299888432432433  7.90926054901961 0.222050594594595  7.84567215686274 0.156324324324325  C 7.78209380392157 0.0905980540540549  7.70847623529412 0.0577297297297306  7.62480941176471 0.0577297297297306  C 7.54115262745098 0.0577297297297306  7.46585850980392 0.0888648648648657  7.39892705882353 0.151135135135136  Z " fill-rule="nonzero" fill="#c0c4cc" stroke="none" transform="matrix(1 0 0 1 237 1103 )" />
  </g>
</svg>