<?xml version="1.0" encoding="utf-8"?>
<svg version="1.1" xmlns:xlink="http://www.w3.org/1999/xlink" width="14px" height="14px" xmlns="http://www.w3.org/2000/svg">
  <g transform="matrix(1 0 0 1 0 -1223 )">
    <path d="M 7 1223  C 10.92 1223  14 1226.08  14 1230  C 14 1233.92  10.92 1237  7 1237  C 3.08 1237  0 1233.92  0 1230  C 0 1226.08  3.08 1223  7 1223  Z " fill-rule="nonzero" fill="#ffffff" stroke="none" />
    <path d="M 7 1223.5  C 10.64 1223.5  13.5 1226.36  13.5 1230  C 13.5 1233.64  10.64 1236.5  7 1236.5  C 3.36 1236.5  0.5 1233.64  0.5 1230  C 0.5 1226.36  3.36 1223.5  7 1223.5  Z " stroke-width="1" stroke="#dcdfe6" fill="none" />
  </g>
</svg>