<?xml version="1.0" encoding="utf-8"?>
<svg version="1.1" xmlns:xlink="http://www.w3.org/1999/xlink" width="14px" height="14px" xmlns="http://www.w3.org/2000/svg">
  <g transform="matrix(1 0 0 1 0 -1223 )">
    <path d="M 7 1227  C 8.68 1227  10 1228.32  10 1230  C 10 1231.68  8.68 1233  7 1233  C 5.32 1233  4 1231.68  4 1230  C 4 1228.32  5.32 1227  7 1227  Z " fill-rule="nonzero" fill="#ffffff" stroke="none" />
    <path d="M 7 1225.5  C 9.52 1225.5  11.5 1227.48  11.5 1230  C 11.5 1232.52  9.52 1234.5  7 1234.5  C 4.48 1234.5  2.5 1232.52  2.5 1230  C 2.5 1227.48  4.48 1225.5  7 1225.5  Z " stroke-width="5" stroke="#4165d7" fill="none" />
  </g>
</svg>