<?xml version="1.0" encoding="utf-8"?>
<svg version="1.1" xmlns:xlink="http://www.w3.org/1999/xlink" width="14px" height="14px" xmlns="http://www.w3.org/2000/svg">
  <g transform="matrix(1 0 0 1 -112 -1223 )">
    <path d="M 119 1223  C 122.92 1223  126 1226.08  126 1230  C 126 1233.92  122.92 1237  119 1237  C 115.08 1237  112 1233.92  112 1230  C 112 1226.08  115.08 1223  119 1223  Z " fill-rule="nonzero" fill="#f5f7fa" stroke="none" />
    <path d="M 119 1223.5  C 122.64 1223.5  125.5 1226.36  125.5 1230  C 125.5 1233.64  122.64 1236.5  119 1236.5  C 115.36 1236.5  112.5 1233.64  112.5 1230  C 112.5 1226.36  115.36 1223.5  119 1223.5  Z " stroke-width="1" stroke="#dcdfe6" fill="none" />
  </g>
</svg>