<?xml version="1.0" encoding="utf-8"?>
<svg version="1.1" xmlns:xlink="http://www.w3.org/1999/xlink" width="12px" height="12px" xmlns="http://www.w3.org/2000/svg">
  <g transform="matrix(1 0 0 1 -16 -17 )">
    <path d="M 1.80910344827586 1.80910344827586  C 2.92578868965517 0.692418206896552  4.32275420689655 0.111995586206897  6 0.0678620689655172  C 7.67724579310345 0.111995586206897  9.07421131034483 0.692418206896552  10.1908965517241 1.80910344827586  C 11.3075817931034 2.92578868965517  11.8880044137931 4.32275420689655  11.9321379310345 6  C 11.8880044137931 7.67724579310345  11.3075817931034 9.07421131034483  10.1908965517241 10.1908965517241  C 9.07421131034483 11.3075817931034  7.67724579310345 11.8880044137931  6 11.9321379310345  C 4.32275420689655 11.8880044137931  2.92578868965517 11.3075817931034  1.80910344827586 10.1908965517241  C 0.692418206896552 9.07421131034483  0.111995586206897 7.67724579310345  0.0678620689655172 6  C 0.111995586206897 4.32275420689655  0.692418206896552 2.92578868965517  1.80910344827586 1.80910344827586  Z M 8.38344827586207 4.05351724137931  L 5.25848275862069 7.16524137931035  L 3.94758620689655 5.85434482758621  C 3.84165517241379 5.75724579310345  3.72027144827586 5.70868965517241  3.58344827586207 5.70868965517241  C 3.44662510344828 5.70868965517241  3.32745268965517 5.75944386206897  3.22593103448276 5.86096551724138  C 3.12440937931034 5.96248717241379  3.07365517241379 6.07944827586207  3.07365517241379 6.21186206896552  C 3.07365517241379 6.34427586206897  3.12221131034483 6.46344827586207  3.21931034482759 6.56937931034483  L 4.90096551724138 8.25103448275862  C 4.99806455172414 8.34813351724138  5.11723696551724 8.39668965517242  5.25848275862069 8.39668965517242  C 5.39972855172414 8.39668965517242  5.51890096551724 8.34813351724138  5.616 8.25103448275862  L 9.09848275862069 4.76855172413793  C 9.23089655172414 4.63613793103448  9.272832 4.47503006896552  9.22427586206896 4.28524137931035  C 9.17571972413793 4.09545268965517  9.05654731034483 3.97628027586207  8.86675862068965 3.92772413793104  C 8.67696993103448 3.879168  8.51586206896552 3.92110344827586  8.38344827586207 4.05351724137931  Z " fill-rule="nonzero" fill="#67c23a" stroke="none" transform="matrix(1 0 0 1 16 17 )" />
  </g>
</svg>