<?xml version="1.0" encoding="utf-8"?>
<svg version="1.1" xmlns:xlink="http://www.w3.org/1999/xlink" width="12px" height="12px" xmlns="http://www.w3.org/2000/svg">
  <g transform="matrix(1 0 0 1 -16 -17 )">
    <path d="M 1.80910344827586 1.80910344827586  C 2.92578868965517 0.692418206896552  4.32275420689655 0.111995586206897  6 0.0678620689655172  C 7.67724579310345 0.111995586206897  9.07421131034483 0.692418206896552  10.1908965517241 1.80910344827586  C 11.3075817931034 2.92578868965517  11.8880044137931 4.32275420689655  11.9321379310345 6  C 11.8880044137931 7.67724579310345  11.3075817931034 9.07421131034483  10.1908965517241 10.1908965517241  C 9.07421131034483 11.3075817931034  7.67724579310345 11.8880044137931  6 11.9321379310345  C 4.32275420689655 11.8880044137931  2.92578868965517 11.3075817931034  1.80910344827586 10.1908965517241  C 0.692418206896552 9.07421131034483  0.111995586206897 7.67724579310345  0.0678620689655172 6  C 0.111995586206897 4.32275420689655  0.692418206896552 2.92578868965517  1.80910344827586 1.80910344827586  Z M 6.56937931034483 2.86179310344828  C 6.41931475862069 2.69406455172414  6.22951282758621 2.61020689655173  6 2.61020689655172  C 5.77048717241379 2.61020689655172  5.58068524137931 2.69406455172414  5.43062068965517 2.86179310344828  C 5.28055613793104 3.02952165517241  5.21434924137931 3.22814234482759  5.232 3.45765517241379  L 5.53655172413793 6.84744827586207  C 5.55420248275862 6.97103006896552  5.60496993103448 7.0703404137931  5.6888275862069 7.14537931034483  C 5.77268524137931 7.22041820689655  5.87641820689655 7.25793103448276  6 7.25793103448276  C 6.12358179310345 7.25793103448276  6.22731475862069 7.22041820689655  6.3111724137931 7.14537931034483  C 6.39503006896552 7.0703404137931  6.44579751724138 6.97103006896552  6.46344827586207 6.84744827586207  L 6.768 3.45765517241379  C 6.78565075862069 3.22814234482759  6.71944386206897 3.02952165517241  6.56937931034483 2.86179310344828  Z M 5.51668965517241 9.1911724137931  C 5.64469406896552 9.31475420689655  5.80578868965517 9.38096110344827  6 9.38979310344827  C 6.19421131034483 9.38096110344827  6.35530593103448 9.31475420689655  6.48331034482759 9.1911724137931  C 6.61131475862069 9.06759062068966  6.67531034482758 8.90869406896552  6.67531034482758 8.71448275862069  C 6.67531034482758 8.52027144827586  6.61131475862069 8.35917682758621  6.48331034482759 8.2311724137931  C 6.35530593103448 8.103168  6.19421131034483 8.0391724137931  6 8.0391724137931  C 5.80578868965517 8.0391724137931  5.64469406896552 8.103168  5.51668965517241 8.2311724137931  C 5.38868524137931 8.35917682758621  5.32468965517241 8.52027144827586  5.32468965517241 8.71448275862069  C 5.32468965517241 8.90869406896552  5.38868524137931 9.06759062068966  5.51668965517241 9.1911724137931  Z " fill-rule="nonzero" fill="#e6a23c" stroke="none" transform="matrix(1 0 0 1 16 17 )" />
  </g>
</svg>