<?xml version="1.0" encoding="utf-8"?>
<svg version="1.1" xmlns:xlink="http://www.w3.org/1999/xlink" width="14px" height="14px" xmlns="http://www.w3.org/2000/svg">
  <g transform="matrix(1 0 0 1 -16 -16 )">
    <path d="M 2.11062068965517 2.11062068965517  C 3.41342013793103 0.80782124137931  5.04321324137931 0.130661517241379  7 0.0791724137931034  C 8.95678675862069 0.130661517241379  10.586579862069 0.80782124137931  11.8893793103448 2.11062068965517  C 13.1921787586207 3.41342013793103  13.8693384827586 5.04321324137931  13.9208275862069 7  C 13.8693384827586 8.95678675862069  13.1921787586207 10.586579862069  11.8893793103448 11.8893793103448  C 10.586579862069 13.1921787586207  8.95678675862069 13.8693384827586  7 13.9208275862069  C 5.04321324137931 13.8693384827586  3.41342013793103 13.1921787586207  2.11062068965517 11.8893793103448  C 0.80782124137931 10.586579862069  0.130661517241379 8.95678675862069  0.0791724137931034 7  C 0.130661517241379 5.04321324137931  0.80782124137931 3.41342013793103  2.11062068965517 2.11062068965517  Z M 7.38620689655172 4.088  C 7.56128220689655 4.24762703448276  7.77755806896552 4.32744827586207  8.03503448275862 4.32744827586207  C 8.30279944827586 4.32744827586207  8.52423503448276 4.24762703448276  8.69931034482759 4.088  C 8.87438565517241 3.92837296551724  8.96193103448276 3.71466151724138  8.96193103448276 3.44689655172414  C 8.96193103448276 3.1791315862069  8.87438565517241 2.96542013793104  8.69931034482759 2.80579310344828  C 8.52423503448276 2.64616606896552  8.30537931034483 2.56634482758621  8.04275862068966 2.56634482758621  C 7.78013793103448 2.56634482758621  7.56128220689655 2.64616606896552  7.38620689655172 2.80579310344828  C 7.2111315862069 2.96542013793104  7.12358620689655 3.1791315862069  7.12358620689655 3.44689655172414  C 7.12358620689655 3.71466151724138  7.2111315862069 3.92837296551724  7.38620689655172 4.088  Z M 7.2471724137931 11.0011034482759  C 7.59733848275862 10.7127304827586  7.92175227586207 10.341971862069  8.22041379310345 9.8888275862069  C 8.22041379310345 9.82703448275862  8.22555806896552 9.74464882758621  8.23586206896552 9.64165517241379  C 8.24616606896552 9.53866151724138  8.24616606896552 9.4408275862069  8.23586206896552 9.34813793103448  L 7.41710344827586 10.2904827586207  C 7.33471779310345 10.3831724137931  7.24975227586207 10.4552695172414  7.16220689655172 10.5067586206897  C 7.07466151724138 10.5582477241379  7 10.573696  6.93820689655172 10.5531034482759  C 6.84551724137931 10.5119028965517  6.80431668965517 10.4398212413793  6.81462068965517 10.3368275862069  L 8.17406896551724 6.05765517241379  C 8.22555806896552 5.76928220689655  8.17921324137931 5.52210979310345  8.03503448275862 5.31613793103448  C 7.89085572413793 5.11016606896552  7.65913158620689 4.98657986206897  7.33986206896552 4.94537931034483  C 6.97940744827586 4.95568331034483  6.5854764137931 5.10758620689655  6.15806896551724 5.40110344827586  C 5.73066151724138 5.69462068965517  5.35733848275862 6.06795917241379  5.03806896551724 6.52110344827586  L 5.03806896551724 6.7528275862069  C 5.02776496551724 6.85582124137931  5.02776496551724 6.95365517241379  5.03806896551724 7.04634482758621  L 5.8568275862069 6.104  C 5.93921324137931 6.01131034482759  6.02417875862069 5.93921324137931  6.11172413793103 5.88772413793103  C 6.19926951724138 5.83623503448276  6.26878675862069 5.82078675862069  6.32027586206897 5.84137931034483  C 6.42326951724138 5.8928684137931  6.45931034482759 5.97526951724138  6.42841379310345 6.08855172413793  L 5.08441379310345 10.352275862069  C 5.01231668965517 10.6097522758621  5.04837296551724 10.8388965517241  5.19255172413793 11.039724137931  C 5.33673048275862 11.2405517241379  5.58906262068966 11.3770063448276  5.94951724137931 11.4491034482759  C 6.46445462068966 11.4387994482759  6.89700634482759 11.2894764137931  7.2471724137931 11.0011034482759  Z " fill-rule="nonzero" fill="#909399" stroke="none" transform="matrix(1 0 0 1 16 16 )" />
  </g>
</svg>