<?xml version="1.0" encoding="utf-8"?>
<svg version="1.1" xmlns:xlink="http://www.w3.org/1999/xlink" width="12px" height="12px" xmlns="http://www.w3.org/2000/svg">
  <g transform="matrix(1 0 0 1 -12 -17 )">
    <path d="M 1.80910344827586 1.80910344827586  C 2.92578868965517 0.692418206896552  4.32275420689655 0.111995586206897  6 0.0678620689655172  C 7.67724579310345 0.111995586206897  9.07421131034483 0.692418206896552  10.1908965517241 1.80910344827586  C 11.3075817931034 2.92578868965517  11.8880044137931 4.32275420689655  11.9321379310345 6  C 11.8880044137931 7.67724579310345  11.3075817931034 9.07421131034483  10.1908965517241 10.1908965517241  C 9.07421131034483 11.3075817931034  7.67724579310345 11.8880044137931  6 11.9321379310345  C 4.32275420689655 11.8880044137931  2.92578868965517 11.3075817931034  1.80910344827586 10.1908965517241  C 0.692418206896552 9.07421131034483  0.111995586206897 7.67724579310345  0.0678620689655172 6  C 0.111995586206897 4.32275420689655  0.692418206896552 2.92578868965517  1.80910344827586 1.80910344827586  Z M 7.37710344827586 3.90786206896552  L 6 5.28496551724138  L 4.62289655172414 3.90786206896552  C 4.51696551724138 3.80193103448276  4.39558179310345 3.74896551724138  4.25875862068965 3.74896551724138  C 4.12193544827586 3.74896551724138  4.00276303448276 3.79971972413793  3.90124137931034 3.90124137931034  C 3.79971972413793 4.00276303448276  3.74896551724138 4.12193544827586  3.74896551724138 4.25875862068966  C 3.74896551724138 4.39558179310345  3.80193103448276 4.51696551724138  3.90786206896552 4.62289655172414  L 5.28496551724138 6  L 3.90786206896552 7.37710344827586  C 3.80193103448276 7.48303448275862  3.74896551724138 7.60441820689655  3.74896551724138 7.74124137931035  C 3.74896551724138 7.87806455172414  3.79971972413793 7.99723696551724  3.90124137931034 8.09875862068966  C 4.00276303448276 8.20028027586207  4.12193544827586 8.25103448275862  4.25875862068965 8.25103448275862  C 4.39558179310345 8.25103448275862  4.51696551724138 8.19806896551724  4.62289655172414 8.09213793103448  L 6 6.71503448275862  L 7.37710344827586 8.09213793103448  C 7.51834924137931 8.22455172413793  7.68165517241379 8.26648717241379  7.86703448275862 8.21793103448276  C 8.05241379310345 8.16937489655172  8.16937489655172 8.05241379310345  8.21793103448276 7.86703448275862  C 8.26648717241379 7.68165517241379  8.22455172413793 7.51834924137931  8.09213793103448 7.37710344827586  L 6.71503448275862 6  L 8.09213793103448 4.62289655172414  C 8.19806896551724 4.51696551724138  8.25103448275862 4.39558179310345  8.25103448275862 4.25875862068965  C 8.25103448275862 4.12193544827586  8.20028027586207 4.00276303448276  8.09875862068966 3.90124137931034  C 7.99723696551724 3.79971972413793  7.87806455172414 3.74896551724138  7.74124137931035 3.74896551724138  C 7.60441820689655 3.74896551724138  7.48303448275862 3.80193103448276  7.37710344827586 3.90786206896552  Z " fill-rule="nonzero" fill="#f16a6a" stroke="none" transform="matrix(1 0 0 1 12 17 )" />
  </g>
</svg>