<?xml version="1.0" encoding="utf-8"?>
<svg version="1.1" xmlns:xlink="http://www.w3.org/1999/xlink" width="9px" height="10px" xmlns="http://www.w3.org/2000/svg">
  <g transform="matrix(1 0 0 1 -131 -23 )">
    <path d="M 0.191853658536585 4.70723404255319  L 4.73312195121951 0.172765957446808  C 4.81536585365854 0.101843971631206  4.91136585365854 0.0663829787234045  5.02112195121951 0.0663829787234041  C 5.13087804878049 0.0663829787234045  5.22687804878049 0.106241134751773  5.30912195121951 0.18595744680851  C 5.39136585365854 0.265673758865248  5.43248780487805 0.358723404255319  5.43248780487805 0.465106382978723  C 5.43248780487805 0.571489361702128  5.39136585365854 0.664539007092198  5.30912195121951 0.744255319148936  L 1.02863414634146 4.99957446808511  L 5.30912195121951 9.25489361702128  C 5.39136585365854 9.33460992907801  5.43248780487805 9.42992907801418  5.43248780487805 9.54085106382979  C 5.43248780487805 9.65177304964539  5.39136585365854 9.74482269503546  5.30912195121951 9.82  C 5.22687804878049 9.89517730496454  5.13087804878049 9.93290780141844  5.02112195121951 9.9331914893617  C 4.91136585365854 9.93347517730496  4.81536585365854 9.89801418439716  4.73312195121951 9.8268085106383  L 0.191853658536585 5.29234042553191  C 0.109609756097561 5.20354609929078  0.068487804878049 5.10382978723404  0.068487804878049 4.9931914893617  C 0.068487804878049 4.88255319148936  0.109609756097561 4.78723404255319  0.191853658536585 4.70723404255319  Z M 3.7040487804878 4.70723404255319  L 8.24531707317073 0.172765957446808  C 8.32756097560976 0.101843971631206  8.42356097560975 0.0663829787234045  8.53331707317073 0.0663829787234041  C 8.64307317073171 0.0663829787234045  8.73907317073171 0.106241134751773  8.82131707317073 0.18595744680851  C 8.90356097560976 0.265673758865248  8.94468292682927 0.358723404255319  8.94468292682927 0.465106382978723  C 8.94468292682927 0.571489361702128  8.90356097560976 0.664539007092198  8.82131707317073 0.744255319148936  L 4.54082926829268 4.99957446808511  L 8.82131707317073 9.25489361702128  C 8.90356097560976 9.33460992907801  8.94468292682927 9.42992907801418  8.94468292682927 9.54085106382979  C 8.94468292682927 9.65177304964539  8.90356097560976 9.74482269503546  8.82131707317073 9.82  C 8.73907317073171 9.89517730496454  8.64307317073171 9.93290780141844  8.53331707317073 9.9331914893617  C 8.42356097560975 9.93347517730496  8.32756097560976 9.89801418439716  8.24531707317073 9.8268085106383  L 3.7040487804878 5.29234042553191  C 3.62180487804878 5.20354609929078  3.58068292682927 5.10382978723404  3.58068292682927 4.9931914893617  C 3.58068292682927 4.88255319148936  3.62180487804878 4.78723404255319  3.7040487804878 4.70723404255319  Z " fill-rule="nonzero" fill="#409eff" stroke="none" transform="matrix(1 0 0 1 131 23 )" />
  </g>
</svg>