<?xml version="1.0" encoding="utf-8"?>
<svg version="1.1" xmlns:xlink="http://www.w3.org/1999/xlink" width="10px" height="18px" xmlns="http://www.w3.org/2000/svg">
  <g transform="matrix(1 0 0 1 -17 -460 )">
    <path d="M 9.07384615384615 0.0959999999999988  C 8.87692307692308 0.0959999999999988  8.70461538461538 0.160007999999999  8.55692307692308 0.288  L 0.409230769230768 8.472  C 0.26153846153846 8.616  0.187692307692306 8.788008  0.187692307692306 8.988  C 0.187692307692306 9.187992  0.26153846153846 9.367992  0.409230769230768 9.528  L 8.55692307692308 17.712  C 8.70461538461538 17.839992  8.87692307692308 17.904  9.07384615384615 17.904  C 9.27076923076923 17.904  9.44307692307692 17.832  9.59076923076923 17.688  C 9.73846153846154 17.544  9.81230769230769 17.376  9.81230769230769 17.184  C 9.81230769230769 16.992  9.73846153846154 16.824  9.59076923076923 16.68  L 1.91076923076923 9  L 9.59076923076923 1.32  C 9.73846153846154 1.176  9.81230769230769 1.008  9.81230769230769 0.815999999999999  C 9.81230769230769 0.623999999999999  9.73846153846154 0.455999999999999  9.59076923076923 0.311999999999999  C 9.44307692307692 0.167999999999999  9.27076923076923 0.0959999999999988  9.07384615384615 0.0959999999999988  Z " fill-rule="nonzero" fill="#ffffff" stroke="none" transform="matrix(1 0 0 1 17 460 )" />
  </g>
</svg>