<?xml version="1.0" encoding="utf-8"?>
<svg version="1.1" xmlns:xlink="http://www.w3.org/1999/xlink" width="10px" height="19px" xmlns="http://www.w3.org/2000/svg">
  <g transform="matrix(1 0 0 1 -1813 -459 )">
    <path d="M 0.926153846153845 0.101333333333332  C 0.729230769230768 0.101333333333332  0.556923076923076 0.168897333333332  0.409230769230769 0.304  C 0.261538461538461 0.472897333333334  0.187692307692308 0.658666666666667  0.187692307692308 0.861333333333333  C 0.187692307692308 1.064  0.261538461538461 1.24133333333333  0.409230769230769 1.39333333333333  L 8.08923076923077 9.5  L 0.409230769230768 17.6066666666667  C 0.26153846153846 17.7586666666667  0.187692307692306 17.936  0.187692307692306 18.1386666666667  C 0.187692307692306 18.3413333333333  0.26153846153846 18.5186666666667  0.409230769230768 18.6706666666667  C 0.556923076923076 18.8226666666667  0.729230769230768 18.8986666666667  0.926153846153845 18.8986666666667  C 1.12307692307692 18.8986666666667  1.29538461538461 18.8311026666667  1.44307692307692 18.696  L 9.59076923076923 10.0573333333333  C 9.73846153846154 9.90533333333333  9.81230769230769 9.719564  9.81230769230769 9.5  C 9.81230769230769 9.280436  9.73846153846154 9.09466666666667  9.59076923076923 8.94266666666667  L 1.44307692307692 0.303999999999999  C 1.29538461538461 0.168897333333332  1.12307692307692 0.101333333333332  0.926153846153845 0.101333333333332  Z " fill-rule="nonzero" fill="#ffffff" stroke="none" transform="matrix(1 0 0 1 1813 459 )" />
  </g>
</svg>