<?xml version="1.0" encoding="utf-8"?>
<svg version="1.1" xmlns:xlink="http://www.w3.org/1999/xlink" width="16px" height="16px" xmlns="http://www.w3.org/2000/svg">
  <g transform="matrix(1 0 0 1 -1811 -54 )">
    <path d="M 15.2448 0.1792  C 14.9376 0.1024  14.6730752 0.1749248  14.4512 0.3968  L 8 6.848  L 1.5488 0.3968  C 1.3781248 0.2432  1.1861248 0.1664  0.9728 0.1664  C 0.759475200000001 0.1664  0.5717248 0.2474752  0.4096 0.4096  C 0.247475200000001 0.5717248  0.1664 0.759475200000001  0.1664 0.9728  C 0.1664 1.1861248  0.2432 1.3781248  0.3968 1.5488  L 6.848 8  L 0.3968 14.4512  C 0.1749248 14.6730752  0.1024 14.9376  0.1792 15.2448  C 0.256 15.552  0.4437248 15.744  0.7424 15.8208  C 1.0410752 15.8976  1.3098752 15.8250752  1.5488 15.6032  L 8 9.152  L 14.4512 15.6032  C 14.6218752 15.7568  14.8138752 15.8336  15.0272 15.8336  C 15.2405248 15.8336  15.4282752 15.7525248  15.5904 15.5904  C 15.7525248 15.4282752  15.8336 15.2405248  15.8336 15.0272  C 15.8336 14.8138752  15.7568 14.6218752  15.6032 14.4512  L 9.152 8  L 15.6032 1.5488  C 15.8250752 1.3269248  15.8976 1.0624  15.8208 0.7552  C 15.744 0.448  15.552 0.256  15.2448 0.1792  Z " fill-rule="nonzero" fill="#ffffff" stroke="none" transform="matrix(1 0 0 1 1811 54 )" />
  </g>
</svg>