<?xml version="1.0" encoding="utf-8"?>
<svg version="1.1" xmlns:xlink="http://www.w3.org/1999/xlink" width="20px" height="20px" xmlns="http://www.w3.org/2000/svg">
  <g transform="matrix(1 0 0 1 -812 -875 )">
    <path d="M 19.10944 9.06372571428571  C 19.2542171428571 11.5322971428571  18.4961142857143 13.7799314285714  16.8351542857143 15.8065828571429  L 19.6922971428571 18.6637257142857  C 19.82944 18.8161142857143  19.8980114285714 18.9875428571429  19.8980114285714 19.1780114285714  C 19.8980114285714 19.3685028571429  19.8256457142857 19.5361142857143  19.6808685714286 19.6808685714286  C 19.5361142857143 19.8256457142857  19.3685028571429 19.8980114285714  19.1780114285714 19.8980114285714  C 18.9875428571429 19.8980114285714  18.8161142857143 19.82944  18.6637257142857 19.6922971428571  L 15.8065828571429 16.8351542857143  C 13.7799314285714 18.4961142857143  11.5322971428571 19.2542171428571  9.06372571428572 19.10944  C 6.59515428571429 18.9646857142857  4.45421714285715 17.9551542857143  2.64086857142857 16.0808685714286  C 0.903725714285716 14.1151542857143  0.0580114285714304 11.8980114285714  0.103725714285716 9.42944  C 0.149440000000002 6.96086857142857  1.07897142857143 4.78182857142857  2.89229714285714 2.89229714285714  C 4.78182857142857 1.07897142857143  6.96086857142857 0.149440000000001  9.42944 0.103725714285715  C 11.8980114285714 0.0580114285714295  14.1151542857143 0.903725714285715  16.0808685714286 2.64086857142857  C 17.9551542857143 4.45421714285714  18.9646857142857 6.59515428571429  19.10944 9.06372571428571  Z M 3.92086857142857 15.3037257142857  C 5.42944 16.8122971428571  7.32658285714286 17.5970742857143  9.61229714285714 17.6580114285714  C 11.8980114285714 17.5970742857143  13.7951542857143 16.8122971428571  15.3037257142857 15.3037257142857  C 16.8122971428571 13.7951542857143  17.5970742857143 11.8980114285714  17.6580114285714 9.61229714285714  C 17.5970742857143 7.32658285714286  16.8122971428571 5.42944  15.3037257142857 3.92086857142857  C 13.7951542857143 2.41229714285714  11.8980114285714 1.62754285714286  9.61229714285714 1.56658285714286  C 7.32658285714286 1.62754285714286  5.42944 2.41229714285714  3.92086857142857 3.92086857142857  C 2.41229714285714 5.42944  1.62754285714286 7.32658285714286  1.56658285714286 9.61229714285714  C 1.62754285714286 11.8980114285714  2.41229714285714 13.7951542857143  3.92086857142857 15.3037257142857  Z M 6.16086857142857 9.08658285714286  C 6.29801142857143 8.94944  6.47325714285714 8.88086857142857  6.68658285714286 8.88086857142857  L 12.5380114285714 8.88086857142857  C 12.75136 8.88086857142857  12.9265828571429 8.94944  13.0637257142857 9.08658285714286  C 13.2008685714286 9.22372571428571  13.26944 9.39897142857143  13.26944 9.61229714285714  C 13.26944 9.82564571428571  13.2008685714286 10.0008685714286  13.0637257142857 10.1380114285714  C 12.9265828571429 10.2751542857143  12.75136 10.3437257142857  12.5380114285714 10.3437257142857  L 6.68658285714286 10.3437257142857  C 6.47325714285714 10.3437257142857  6.29801142857143 10.2751542857143  6.16086857142857 10.1380114285714  C 6.02372571428571 10.0008685714286  5.95515428571428 9.82564571428571  5.95515428571428 9.61229714285714  C 5.95515428571428 9.39897142857143  6.02372571428571 9.22372571428571  6.16086857142857 9.08658285714286  Z " fill-rule="nonzero" fill="#ffffff" stroke="none" transform="matrix(1 0 0 1 812 875 )" />
  </g>
</svg>