<?xml version="1.0" encoding="utf-8"?>
<svg version="1.1" xmlns:xlink="http://www.w3.org/1999/xlink" width="20px" height="20px" xmlns="http://www.w3.org/2000/svg">
  <g transform="matrix(1 0 0 1 -910 -875 )">
    <path d="M 0.139259259259259 0.139259259259259  L 1.6562962962963 0.139259259259259  L 6.20740740740741 0.139259259259259  C 6.42863407407407 0.15506962962963  6.61037037037037 0.234074074074074  6.75259259259259 0.376296296296296  C 6.89481481481482 0.518518518518518  6.96592592592593 0.696296296296296  6.96592592592593 0.909629629629629  C 6.96592592592593 1.12296296296296  6.89481481481482 1.30074074074074  6.75259259259259 1.44296296296296  C 6.61037037037037 1.58518518518518  6.42863407407407 1.6562962962963  6.20740740740741 1.6562962962963  L 1.6562962962963 1.6562962962963  L 1.6562962962963 6.20740740740741  C 1.6562962962963 6.42863407407407  1.58518518518519 6.61037037037037  1.44296296296296 6.75259259259259  C 1.30074074074074 6.89481481481482  1.11900444444444 6.96592592592593  0.897777777777778 6.96592592592593  C 0.676551111111111 6.96592592592593  0.494814814814815 6.89481481481482  0.352592592592593 6.75259259259259  C 0.210370370370371 6.61037037037037  0.139259259259259 6.42863407407407  0.139259259259259 6.20740740740741  L 0.139259259259259 0.139259259259259  Z M 6.20740740740741 19.8607407407407  L 1.6562962962963 19.8607407407407  L 0.139259259259259 19.8607407407407  L 0.139259259259259 13.7925925925926  C 0.139259259259259 13.5713659259259  0.210370370370371 13.3896296296296  0.352592592592593 13.2474074074074  C 0.494814814814815 13.1051851851852  0.676551111111111 13.0340740740741  0.897777777777778 13.0340740740741  C 1.11900444444444 13.0340740740741  1.30074074074074 13.1051851851852  1.44296296296296 13.2474074074074  C 1.58518518518518 13.3896296296296  1.6562962962963 13.5713659259259  1.6562962962963 13.7925925925926  L 1.6562962962963 18.3437037037037  L 6.20740740740741 18.3437037037037  C 6.42863407407407 18.3437037037037  6.61037037037037 18.4148148148148  6.75259259259259 18.557037037037  C 6.89481481481482 18.6992592592593  6.96592592592593 18.877037037037  6.96592592592593 19.0903703703704  C 6.96592592592593 19.3037037037037  6.89481481481482 19.4814814814815  6.75259259259259 19.6237037037037  C 6.61037037037037 19.7659259259259  6.42863407407407 19.8449303703704  6.20740740740741 19.8607407407407  Z M 13.7925925925926 0.139259259259259  L 18.3437037037037 0.139259259259259  L 19.8607407407407 0.139259259259259  L 19.8607407407407 6.20740740740741  C 19.8607407407407 6.42863407407407  19.7896296296296 6.61037037037037  19.6474074074074 6.75259259259259  C 19.5051851851852 6.89481481481482  19.3234488888889 6.96592592592593  19.1022222222222 6.96592592592593  C 18.8809955555556 6.96592592592593  18.6992592592593 6.89481481481482  18.557037037037 6.75259259259259  C 18.4148148148148 6.61037037037037  18.3437037037037 6.42863407407408  18.3437037037037 6.20740740740741  L 18.3437037037037 1.6562962962963  L 13.7925925925926 1.6562962962963  C 13.5713659259259 1.6562962962963  13.3896296296296 1.58518518518519  13.2474074074074 1.44296296296296  C 13.1051851851852 1.30074074074074  13.0340740740741 1.12296296296296  13.0340740740741 0.909629629629629  C 13.0340740740741 0.696296296296297  13.1051851851852 0.518518518518518  13.2474074074074 0.376296296296296  C 13.3896296296296 0.234074074074074  13.5713659259259 0.15506962962963  13.7925925925926 0.139259259259259  Z M 19.8607407407407 19.8607407407407  L 18.3437037037037 19.8607407407407  L 13.7925925925926 19.8607407407407  C 13.5713659259259 19.8449303703704  13.3896296296296 19.7659259259259  13.2474074074074 19.6237037037037  C 13.1051851851852 19.4814814814815  13.0340740740741 19.3037037037037  13.0340740740741 19.0903703703704  C 13.0340740740741 18.877037037037  13.1051851851852 18.6992592592593  13.2474074074074 18.557037037037  C 13.3896296296296 18.4148148148148  13.5713659259259 18.3437037037037  13.7925925925926 18.3437037037037  L 18.3437037037037 18.3437037037037  L 18.3437037037037 13.7925925925926  C 18.3437037037037 13.5713659259259  18.4148148148148 13.3896296296296  18.557037037037 13.2474074074074  C 18.6992592592593 13.1051851851852  18.8809955555556 13.0340740740741  19.1022222222222 13.0340740740741  C 19.3234488888889 13.0340740740741  19.5051851851852 13.1051851851852  19.6474074074074 13.2474074074074  C 19.7896296296296 13.3896296296296  19.8607407407407 13.5713659259259  19.8607407407407 13.7925925925926  L 19.8607407407407 19.8607407407407  Z " fill-rule="nonzero" fill="#ffffff" stroke="none" transform="matrix(1 0 0 1 910 875 )" />
  </g>
</svg>