<?xml version="1.0" encoding="utf-8"?>
<svg version="1.1" xmlns:xlink="http://www.w3.org/1999/xlink" width="20px" height="20px" xmlns="http://www.w3.org/2000/svg">
  <g transform="matrix(1 0 0 1 -968 -875 )">
    <path d="M 8.144 2.024192  C 6.5312 2.3911168  5.136 3.2060672  3.9584 4.468992  L 6.3392 4.468992  C 6.5781248 4.468992  6.7744 4.545792  6.928 4.699392  C 7.0816 4.852992  7.1584 5.044992  7.1584 5.275392  C 7.1584 5.505792  7.0816 5.697792  6.928 5.851392  C 6.7744 6.004992  6.5781248 6.0903168  6.3392 6.107392  L 2.5248 6.107392  C 2.2858752 6.0903168  2.0896 6.004992  1.936 5.851392  C 1.7824 5.697792  1.7056 5.5100672  1.7056 5.288192  L 1.7056 1.473792  C 1.7056 1.2348672  1.7824 1.038592  1.936 0.884992000000001  C 2.0896 0.731392000000001  2.2858752 0.654592000000001  2.5248 0.654592000000001  C 2.7637248 0.654592000000001  2.96 0.731392000000001  3.1136 0.884992000000001  C 3.2672 1.038592  3.344 1.2348672  3.344 1.473792  L 3.344 2.753792  C 4.8117248 1.4396672  6.4885248 0.624716800000002  8.3744 0.308992000000001  C 10.2602752 -0.00673279999999856  12.1162752 0.219392000000001  13.9424 0.987392000000001  C 15.7514752 1.806592  17.1808 3.0183168  18.2304 4.622592  C 19.28 6.2268672  19.8133248 8.0188672  19.8304 9.998592  C 19.7621248 12.7804672  18.8021248 15.0972672  16.9504 16.948992  C 15.0986752 18.8007168  12.7818752 19.7607168  10 19.828992  C 7.2181248 19.7607168  4.9013248 18.8007168  3.0496 16.948992  C 1.1978752 15.0972672  0.2378752 12.7804672  0.1696 9.998592  L 1.808 9.998592  C 1.8592 12.3196672  2.6570752 14.2524672  4.2016 15.796992  C 5.7461248 17.3415168  7.6789248 18.139392  10 18.190592  C 12.3210752 18.139392  14.2496 17.3415168  15.7856 15.796992  C 17.3216 14.2524672  18.1237248 12.3196672  18.192 9.998592  C 18.1749248 8.2748672  17.6970752 6.734592  16.7584 5.377792  C 15.8197248 4.020992  14.5568 3.0183168  12.9696 2.369792  C 11.3653248 1.7724672  9.7568 1.6572672  8.144 2.024192  Z " fill-rule="nonzero" fill="#ffffff" stroke="none" transform="matrix(1 0 0 1 968 875 )" />
  </g>
</svg>