<?xml version="1.0" encoding="utf-8"?>
<svg version="1.1" xmlns:xlink="http://www.w3.org/1999/xlink" width="20px" height="20px" xmlns="http://www.w3.org/2000/svg">
  <g transform="matrix(1 0 0 1 -1008 -875 )">
    <path d="M 11.6 0.307916800000001  C 13.4858752 0.623641600000001  15.1712 1.438592  16.656 2.7527168  L 16.656 1.4727168  C 16.656 1.233792  16.7328 1.0375168  16.8864 0.883916800000001  C 17.04 0.730316800000001  17.232 0.653516800000001  17.4624 0.653516800000001  C 17.6928 0.653516800000001  17.8848 0.730316800000001  18.0384 0.883916800000001  C 18.192 1.0375168  18.2773248 1.233792  18.2944 1.4727168  L 18.2944 5.2871168  C 18.2773248 5.508992  18.192 5.6967168  18.0384 5.8503168  C 17.8848 6.0039168  17.6970752 6.0892416  17.4752 6.1063168  L 13.6608 6.1063168  C 13.4218752 6.0892416  13.2256 6.0039168  13.072 5.8503168  C 12.9184 5.6967168  12.8416 5.5047168  12.8416 5.2743168  C 12.8416 5.0439168  12.9184 4.8519168  13.072 4.6983168  C 13.2256 4.5447168  13.4218752 4.4679168  13.6608 4.4679168  L 16.0416 4.4679168  C 14.7104 3.0684416  13.1445248 2.219392  11.344 1.9207168  C 9.5434752 1.6220416  7.7984 1.9164416  6.1088 2.8039168  C 4.4362752 3.7255168  3.2330752 5.022592  2.4992 6.6951168  C 1.7653248 8.3676416  1.6202752 10.142592  2.064 12.0199168  C 2.5589248 13.8631168  3.5274752 15.3436416  4.9696 16.4615168  C 6.4117248 17.579392  8.0885248 18.155392  10 18.1895168  C 12.3210752 18.1383168  14.2496 17.3404416  15.7856 15.7959168  C 17.3216 14.251392  18.1237248 12.318592  18.192 9.9975168  L 19.8304 9.9975168  C 19.7621248 12.779392  18.8021248 15.096192  16.9504 16.9479168  C 15.0986752 18.7996416  12.7818752 19.7596416  10 19.8279168  C 7.2181248 19.7596416  4.9013248 18.7996416  3.0496 16.9479168  C 1.1978752 15.096192  0.2378752 12.779392  0.1696 9.9975168  C 0.1866752 8.017792  0.7157248 6.225792  1.7568 4.6215168  C 2.7978752 3.0172416  4.2229248 1.8140416  6.032 1.0119168  C 7.8581248 0.226841600000001  9.7141248 -0.00780799999999928  11.6 0.307916800000001  Z " fill-rule="nonzero" fill="#ffffff" stroke="none" transform="matrix(1 0 0 1 1008 875 )" />
  </g>
</svg>