<?xml version="1.0" encoding="utf-8"?>
<svg version="1.1" xmlns:xlink="http://www.w3.org/1999/xlink" width="5px" height="9px" xmlns="http://www.w3.org/2000/svg">
  <defs>
    <mask fill="white" id="clip15">
      <path d="M 4.3124 0.155489361702128  L 0.1748 4.23651063829787  C 0.0998666666666665 4.30825531914894  0.0623999999999995 4.39404255319149  0.0623999999999995 4.49387234042553  C 0.0623999999999995 4.59370212765957  0.0998666666666665 4.68344680851064  0.1748 4.76310638297872  L 4.3124 8.84412765957447  C 4.38733333333333 8.90795744680851  4.4748 8.93987234042553  4.5748 8.93987234042553  C 4.6748 8.93987234042553  4.76226666666667 8.904  4.8372 8.83225531914894  C 4.91213333333333 8.76051063829788  4.9496 8.67676595744681  4.9496 8.58102127659575  C 4.9496 8.48527659574468  4.91213333333333 8.40153191489362  4.8372 8.32978723404256  L 0.937199999999999 4.5  L 4.8372 0.67021276595745  C 4.91213333333333 0.598468085106386  4.9496 0.514723404255322  4.9496 0.418978723404258  C 4.9496 0.323234042553194  4.91213333333333 0.239489361702131  4.8372 0.167744680851067  C 4.76226666666667 0.096000000000003  4.6748 0.0601276595744712  4.5748 0.0601276595744712  C 4.4748 0.0601276595744712  4.38733333333333 0.0920425531914923  4.3124 0.155872340425535  Z " fill-rule="evenodd" />
    </mask>
  </defs>
  <g transform="matrix(1 0 0 1 -221 -3331 )">
    <path d="M 4.3124 0.155489361702128  L 0.1748 4.23651063829787  C 0.0998666666666665 4.30825531914894  0.0623999999999995 4.39404255319149  0.0623999999999995 4.49387234042553  C 0.0623999999999995 4.59370212765957  0.0998666666666665 4.68344680851064  0.1748 4.76310638297872  L 4.3124 8.84412765957447  C 4.38733333333333 8.90795744680851  4.4748 8.93987234042553  4.5748 8.93987234042553  C 4.6748 8.93987234042553  4.76226666666667 8.904  4.8372 8.83225531914894  C 4.91213333333333 8.76051063829788  4.9496 8.67676595744681  4.9496 8.58102127659575  C 4.9496 8.48527659574468  4.91213333333333 8.40153191489362  4.8372 8.32978723404256  L 0.937199999999999 4.5  L 4.8372 0.67021276595745  C 4.91213333333333 0.598468085106386  4.9496 0.514723404255322  4.9496 0.418978723404258  C 4.9496 0.323234042553194  4.91213333333333 0.239489361702131  4.8372 0.167744680851067  C 4.76226666666667 0.096000000000003  4.6748 0.0601276595744712  4.5748 0.0601276595744712  C 4.4748 0.0601276595744712  4.38733333333333 0.0920425531914923  4.3124 0.155872340425535  Z " fill-rule="nonzero" fill="#000000" stroke="none" transform="matrix(1 0 0 1 221 3331 )" />
    <path d="M 4.3124 0.155489361702128  L 0.1748 4.23651063829787  C 0.0998666666666665 4.30825531914894  0.0623999999999995 4.39404255319149  0.0623999999999995 4.49387234042553  C 0.0623999999999995 4.59370212765957  0.0998666666666665 4.68344680851064  0.1748 4.76310638297872  L 4.3124 8.84412765957447  C 4.38733333333333 8.90795744680851  4.4748 8.93987234042553  4.5748 8.93987234042553  C 4.6748 8.93987234042553  4.76226666666667 8.904  4.8372 8.83225531914894  C 4.91213333333333 8.76051063829788  4.9496 8.67676595744681  4.9496 8.58102127659575  C 4.9496 8.48527659574468  4.91213333333333 8.40153191489362  4.8372 8.32978723404256  L 0.937199999999999 4.5  L 4.8372 0.67021276595745  C 4.91213333333333 0.598468085106386  4.9496 0.514723404255322  4.9496 0.418978723404258  C 4.9496 0.323234042553194  4.91213333333333 0.239489361702131  4.8372 0.167744680851067  C 4.76226666666667 0.096000000000003  4.6748 0.0601276595744712  4.5748 0.0601276595744712  C 4.4748 0.0601276595744712  4.38733333333333 0.0920425531914923  4.3124 0.155872340425535  Z " stroke-width="2" stroke="#d7d7d7" fill="none" transform="matrix(1 0 0 1 221 3331 )" mask="url(#clip15)" />
  </g>
</svg>