<?xml version="1.0" encoding="utf-8"?>
<svg version="1.1" xmlns:xlink="http://www.w3.org/1999/xlink" width="12px" height="4px" xmlns="http://www.w3.org/2000/svg">
  <defs>
    <mask fill="white" id="clip21">
      <path d="M 0.435428571428572 0.580571428571429  C 0.716857142857143 0.205714285714285  1.07171428571429 0.0121904761904769  1.5 0  C 1.92857142857143 0.011809523809524  2.28342857142857 0.205333333333335  2.56457142857143 0.580571428571429  C 2.84571428571429 0.955809523809525  2.99085714285714 1.42895238095238  3 2  C 2.99114285714286 2.57142857142857  2.846 3.04457142857143  2.56457142857143 3.41942857142857  C 2.28314285714286 3.79428571428572  1.92828571428571 3.98780952380953  1.5 4  C 1.07142857142857 3.98819047619048  0.716571428571429 3.79466666666667  0.435428571428572 3.41942857142857  C 0.154285714285714 3.04419047619048  0.00914285714285728 2.57104761904762  0 2  C 0.00885714285714302 1.42857142857143  0.154 0.955428571428572  0.435428571428572 0.580571428571429  Z M 4.93542857142857 0.580571428571429  C 5.21685714285714 0.205714285714285  5.57171428571429 0.0121904761904769  6 0  C 6.42857142857143 0.011809523809524  6.78342857142857 0.205333333333335  7.06457142857143 0.580571428571429  C 7.34571428571429 0.955809523809525  7.49085714285714 1.42895238095238  7.5 2  C 7.49114285714286 2.57142857142857  7.346 3.04457142857143  7.06457142857143 3.41942857142857  C 6.78314285714286 3.79428571428572  6.42828571428572 3.98780952380953  6 4  C 5.57142857142857 3.98819047619048  5.21657142857143 3.79466666666667  4.93542857142857 3.41942857142857  C 4.65428571428571 3.04419047619048  4.50914285714286 2.57104761904762  4.5 2  C 4.50885714285714 1.42857142857143  4.654 0.955428571428572  4.93542857142857 0.580571428571429  Z M 9.43542857142857 0.580571428571429  C 9.71685714285714 0.205714285714285  10.0717142857143 0.0121904761904769  10.5 0  C 10.9285714285714 0.011809523809524  11.2834285714286 0.205333333333335  11.5645714285714 0.580571428571429  C 11.8457142857143 0.955809523809525  11.9908571428571 1.42895238095238  12 2  C 11.9911428571429 2.57142857142857  11.846 3.04457142857143  11.5645714285714 3.41942857142857  C 11.2831428571429 3.79428571428572  10.9282857142857 3.98780952380953  10.5 4  C 10.0714285714286 3.98819047619048  9.71657142857143 3.79466666666667  9.43542857142857 3.41942857142857  C 9.15428571428571 3.04419047619048  9.00914285714286 2.57104761904762  9 2  C 9.00885714285714 1.42857142857143  9.154 0.955428571428572  9.43542857142857 0.580571428571429  Z " fill-rule="evenodd" />
    </mask>
  </defs>
  <g transform="matrix(1 0 0 1 -560 -3335 )">
    <path d="M 0.435428571428572 0.580571428571429  C 0.716857142857143 0.205714285714285  1.07171428571429 0.0121904761904769  1.5 0  C 1.92857142857143 0.011809523809524  2.28342857142857 0.205333333333335  2.56457142857143 0.580571428571429  C 2.84571428571429 0.955809523809525  2.99085714285714 1.42895238095238  3 2  C 2.99114285714286 2.57142857142857  2.846 3.04457142857143  2.56457142857143 3.41942857142857  C 2.28314285714286 3.79428571428572  1.92828571428571 3.98780952380953  1.5 4  C 1.07142857142857 3.98819047619048  0.716571428571429 3.79466666666667  0.435428571428572 3.41942857142857  C 0.154285714285714 3.04419047619048  0.00914285714285728 2.57104761904762  0 2  C 0.00885714285714302 1.42857142857143  0.154 0.955428571428572  0.435428571428572 0.580571428571429  Z M 4.93542857142857 0.580571428571429  C 5.21685714285714 0.205714285714285  5.57171428571429 0.0121904761904769  6 0  C 6.42857142857143 0.011809523809524  6.78342857142857 0.205333333333335  7.06457142857143 0.580571428571429  C 7.34571428571429 0.955809523809525  7.49085714285714 1.42895238095238  7.5 2  C 7.49114285714286 2.57142857142857  7.346 3.04457142857143  7.06457142857143 3.41942857142857  C 6.78314285714286 3.79428571428572  6.42828571428572 3.98780952380953  6 4  C 5.57142857142857 3.98819047619048  5.21657142857143 3.79466666666667  4.93542857142857 3.41942857142857  C 4.65428571428571 3.04419047619048  4.50914285714286 2.57104761904762  4.5 2  C 4.50885714285714 1.42857142857143  4.654 0.955428571428572  4.93542857142857 0.580571428571429  Z M 9.43542857142857 0.580571428571429  C 9.71685714285714 0.205714285714285  10.0717142857143 0.0121904761904769  10.5 0  C 10.9285714285714 0.011809523809524  11.2834285714286 0.205333333333335  11.5645714285714 0.580571428571429  C 11.8457142857143 0.955809523809525  11.9908571428571 1.42895238095238  12 2  C 11.9911428571429 2.57142857142857  11.846 3.04457142857143  11.5645714285714 3.41942857142857  C 11.2831428571429 3.79428571428572  10.9282857142857 3.98780952380953  10.5 4  C 10.0714285714286 3.98819047619048  9.71657142857143 3.79466666666667  9.43542857142857 3.41942857142857  C 9.15428571428571 3.04419047619048  9.00914285714286 2.57104761904762  9 2  C 9.00885714285714 1.42857142857143  9.154 0.955428571428572  9.43542857142857 0.580571428571429  Z " fill-rule="nonzero" fill="#000000" stroke="none" transform="matrix(1 0 0 1 560 3335 )" />
    <path d="M 0.435428571428572 0.580571428571429  C 0.716857142857143 0.205714285714285  1.07171428571429 0.0121904761904769  1.5 0  C 1.92857142857143 0.011809523809524  2.28342857142857 0.205333333333335  2.56457142857143 0.580571428571429  C 2.84571428571429 0.955809523809525  2.99085714285714 1.42895238095238  3 2  C 2.99114285714286 2.57142857142857  2.846 3.04457142857143  2.56457142857143 3.41942857142857  C 2.28314285714286 3.79428571428572  1.92828571428571 3.98780952380953  1.5 4  C 1.07142857142857 3.98819047619048  0.716571428571429 3.79466666666667  0.435428571428572 3.41942857142857  C 0.154285714285714 3.04419047619048  0.00914285714285728 2.57104761904762  0 2  C 0.00885714285714302 1.42857142857143  0.154 0.955428571428572  0.435428571428572 0.580571428571429  Z " stroke-width="2" stroke="#d7d7d7" fill="none" transform="matrix(1 0 0 1 560 3335 )" mask="url(#clip21)" />
    <path d="M 4.93542857142857 0.580571428571429  C 5.21685714285714 0.205714285714285  5.57171428571429 0.0121904761904769  6 0  C 6.42857142857143 0.011809523809524  6.78342857142857 0.205333333333335  7.06457142857143 0.580571428571429  C 7.34571428571429 0.955809523809525  7.49085714285714 1.42895238095238  7.5 2  C 7.49114285714286 2.57142857142857  7.346 3.04457142857143  7.06457142857143 3.41942857142857  C 6.78314285714286 3.79428571428572  6.42828571428572 3.98780952380953  6 4  C 5.57142857142857 3.98819047619048  5.21657142857143 3.79466666666667  4.93542857142857 3.41942857142857  C 4.65428571428571 3.04419047619048  4.50914285714286 2.57104761904762  4.5 2  C 4.50885714285714 1.42857142857143  4.654 0.955428571428572  4.93542857142857 0.580571428571429  Z " stroke-width="2" stroke="#d7d7d7" fill="none" transform="matrix(1 0 0 1 560 3335 )" mask="url(#clip21)" />
    <path d="M 9.43542857142857 0.580571428571429  C 9.71685714285714 0.205714285714285  10.0717142857143 0.0121904761904769  10.5 0  C 10.9285714285714 0.011809523809524  11.2834285714286 0.205333333333335  11.5645714285714 0.580571428571429  C 11.8457142857143 0.955809523809525  11.9908571428571 1.42895238095238  12 2  C 11.9911428571429 2.57142857142857  11.846 3.04457142857143  11.5645714285714 3.41942857142857  C 11.2831428571429 3.79428571428572  10.9282857142857 3.98780952380953  10.5 4  C 10.0714285714286 3.98819047619048  9.71657142857143 3.79466666666667  9.43542857142857 3.41942857142857  C 9.15428571428571 3.04419047619048  9.00914285714286 2.57104761904762  9 2  C 9.00885714285714 1.42857142857143  9.154 0.955428571428572  9.43542857142857 0.580571428571429  Z " stroke-width="2" stroke="#d7d7d7" fill="none" transform="matrix(1 0 0 1 560 3335 )" mask="url(#clip21)" />
  </g>
</svg>