<?xml version="1.0" encoding="utf-8"?>
<svg version="1.1" xmlns:xlink="http://www.w3.org/1999/xlink" width="5px" height="3px" xmlns="http://www.w3.org/2000/svg">
  <defs>
    <mask fill="white" id="clip24">
      <path d="M 0.181428571428571 0.435428571428572  C 0.298690476190476 0.154285714285714  0.446547619047619 0.00914285714285766  0.625 0  C 0.803571428571429 0.00885714285714302  0.951428571428572 0.154000000000001  1.06857142857143 0.435428571428572  C 1.18571428571429 0.716857142857144  1.24619047619048 1.07171428571429  1.25 1.5  C 1.24630952380952 1.92857142857143  1.18583333333333 2.28342857142857  1.06857142857143 2.56457142857143  C 0.951309523809524 2.84571428571429  0.803452380952381 2.99085714285714  0.625 3  C 0.446428571428571 2.99114285714286  0.298571428571429 2.846  0.181428571428571 2.56457142857143  C 0.0642857142857143 2.28314285714286  0.00380952380952387 1.92828571428572  0 1.5  C 0.00369047619047626 1.07142857142857  0.0641666666666667 0.716571428571429  0.181428571428571 0.435428571428572  Z M 2.05642857142857 0.435428571428572  C 2.17369047619048 0.154285714285714  2.32154761904762 0.00914285714285766  2.5 0  C 2.67857142857143 0.00885714285714302  2.82642857142857 0.154000000000001  2.94357142857143 0.435428571428572  C 3.06071428571429 0.716857142857144  3.12119047619048 1.07171428571429  3.125 1.5  C 3.12130952380952 1.92857142857143  3.06083333333333 2.28342857142857  2.94357142857143 2.56457142857143  C 2.82630952380952 2.84571428571429  2.67845238095238 2.99085714285714  2.5 3  C 2.32142857142857 2.99114285714286  2.17357142857143 2.846  2.05642857142857 2.56457142857143  C 1.93928571428571 2.28314285714286  1.87880952380952 1.92828571428572  1.875 1.5  C 1.87869047619048 1.07142857142857  1.93916666666667 0.716571428571429  2.05642857142857 0.435428571428572  Z M 3.93142857142857 0.435428571428572  C 4.04869047619048 0.154285714285714  4.19654761904762 0.00914285714285766  4.375 0  C 4.55357142857143 0.00885714285714302  4.70142857142857 0.154000000000001  4.81857142857143 0.435428571428572  C 4.93571428571429 0.716857142857144  4.99619047619048 1.07171428571429  5 1.5  C 4.99630952380952 1.92857142857143  4.93583333333333 2.28342857142857  4.81857142857143 2.56457142857143  C 4.70130952380952 2.84571428571429  4.55345238095238 2.99085714285714  4.375 3  C 4.19642857142857 2.99114285714286  4.04857142857143 2.846  3.93142857142857 2.56457142857143  C 3.81428571428571 2.28314285714286  3.75380952380952 1.92828571428572  3.75 1.5  C 3.75369047619048 1.07142857142857  3.81416666666667 0.716571428571429  3.93142857142857 0.435428571428572  Z " fill-rule="evenodd" />
    </mask>
  </defs>
  <g transform="matrix(1 0 0 1 -295 -3335 )">
    <path d="M 0.181428571428571 0.435428571428572  C 0.298690476190476 0.154285714285714  0.446547619047619 0.00914285714285766  0.625 0  C 0.803571428571429 0.00885714285714302  0.951428571428572 0.154000000000001  1.06857142857143 0.435428571428572  C 1.18571428571429 0.716857142857144  1.24619047619048 1.07171428571429  1.25 1.5  C 1.24630952380952 1.92857142857143  1.18583333333333 2.28342857142857  1.06857142857143 2.56457142857143  C 0.951309523809524 2.84571428571429  0.803452380952381 2.99085714285714  0.625 3  C 0.446428571428571 2.99114285714286  0.298571428571429 2.846  0.181428571428571 2.56457142857143  C 0.0642857142857143 2.28314285714286  0.00380952380952387 1.92828571428572  0 1.5  C 0.00369047619047626 1.07142857142857  0.0641666666666667 0.716571428571429  0.181428571428571 0.435428571428572  Z M 2.05642857142857 0.435428571428572  C 2.17369047619048 0.154285714285714  2.32154761904762 0.00914285714285766  2.5 0  C 2.67857142857143 0.00885714285714302  2.82642857142857 0.154000000000001  2.94357142857143 0.435428571428572  C 3.06071428571429 0.716857142857144  3.12119047619048 1.07171428571429  3.125 1.5  C 3.12130952380952 1.92857142857143  3.06083333333333 2.28342857142857  2.94357142857143 2.56457142857143  C 2.82630952380952 2.84571428571429  2.67845238095238 2.99085714285714  2.5 3  C 2.32142857142857 2.99114285714286  2.17357142857143 2.846  2.05642857142857 2.56457142857143  C 1.93928571428571 2.28314285714286  1.87880952380952 1.92828571428572  1.875 1.5  C 1.87869047619048 1.07142857142857  1.93916666666667 0.716571428571429  2.05642857142857 0.435428571428572  Z M 3.93142857142857 0.435428571428572  C 4.04869047619048 0.154285714285714  4.19654761904762 0.00914285714285766  4.375 0  C 4.55357142857143 0.00885714285714302  4.70142857142857 0.154000000000001  4.81857142857143 0.435428571428572  C 4.93571428571429 0.716857142857144  4.99619047619048 1.07171428571429  5 1.5  C 4.99630952380952 1.92857142857143  4.93583333333333 2.28342857142857  4.81857142857143 2.56457142857143  C 4.70130952380952 2.84571428571429  4.55345238095238 2.99085714285714  4.375 3  C 4.19642857142857 2.99114285714286  4.04857142857143 2.846  3.93142857142857 2.56457142857143  C 3.81428571428571 2.28314285714286  3.75380952380952 1.92828571428572  3.75 1.5  C 3.75369047619048 1.07142857142857  3.81416666666667 0.716571428571429  3.93142857142857 0.435428571428572  Z " fill-rule="nonzero" fill="#4165d7" stroke="none" transform="matrix(1 0 0 1 295 3335 )" />
    <path d="M 0.181428571428571 0.435428571428572  C 0.298690476190476 0.154285714285714  0.446547619047619 0.00914285714285766  0.625 0  C 0.803571428571429 0.00885714285714302  0.951428571428572 0.154000000000001  1.06857142857143 0.435428571428572  C 1.18571428571429 0.716857142857144  1.24619047619048 1.07171428571429  1.25 1.5  C 1.24630952380952 1.92857142857143  1.18583333333333 2.28342857142857  1.06857142857143 2.56457142857143  C 0.951309523809524 2.84571428571429  0.803452380952381 2.99085714285714  0.625 3  C 0.446428571428571 2.99114285714286  0.298571428571429 2.846  0.181428571428571 2.56457142857143  C 0.0642857142857143 2.28314285714286  0.00380952380952387 1.92828571428572  0 1.5  C 0.00369047619047626 1.07142857142857  0.0641666666666667 0.716571428571429  0.181428571428571 0.435428571428572  Z " stroke-width="2" stroke="#d7d7d7" fill="none" transform="matrix(1 0 0 1 295 3335 )" mask="url(#clip24)" />
    <path d="M 2.05642857142857 0.435428571428572  C 2.17369047619048 0.154285714285714  2.32154761904762 0.00914285714285766  2.5 0  C 2.67857142857143 0.00885714285714302  2.82642857142857 0.154000000000001  2.94357142857143 0.435428571428572  C 3.06071428571429 0.716857142857144  3.12119047619048 1.07171428571429  3.125 1.5  C 3.12130952380952 1.92857142857143  3.06083333333333 2.28342857142857  2.94357142857143 2.56457142857143  C 2.82630952380952 2.84571428571429  2.67845238095238 2.99085714285714  2.5 3  C 2.32142857142857 2.99114285714286  2.17357142857143 2.846  2.05642857142857 2.56457142857143  C 1.93928571428571 2.28314285714286  1.87880952380952 1.92828571428572  1.875 1.5  C 1.87869047619048 1.07142857142857  1.93916666666667 0.716571428571429  2.05642857142857 0.435428571428572  Z " stroke-width="2" stroke="#d7d7d7" fill="none" transform="matrix(1 0 0 1 295 3335 )" mask="url(#clip24)" />
    <path d="M 3.93142857142857 0.435428571428572  C 4.04869047619048 0.154285714285714  4.19654761904762 0.00914285714285766  4.375 0  C 4.55357142857143 0.00885714285714302  4.70142857142857 0.154000000000001  4.81857142857143 0.435428571428572  C 4.93571428571429 0.716857142857144  4.99619047619048 1.07171428571429  5 1.5  C 4.99630952380952 1.92857142857143  4.93583333333333 2.28342857142857  4.81857142857143 2.56457142857143  C 4.70130952380952 2.84571428571429  4.55345238095238 2.99085714285714  4.375 3  C 4.19642857142857 2.99114285714286  4.04857142857143 2.846  3.93142857142857 2.56457142857143  C 3.81428571428571 2.28314285714286  3.75380952380952 1.92828571428572  3.75 1.5  C 3.75369047619048 1.07142857142857  3.81416666666667 0.716571428571429  3.93142857142857 0.435428571428572  Z " stroke-width="2" stroke="#d7d7d7" fill="none" transform="matrix(1 0 0 1 295 3335 )" mask="url(#clip24)" />
  </g>
</svg>