<?xml version="1.0" encoding="utf-8"?>
<svg version="1.1" xmlns:xlink="http://www.w3.org/1999/xlink" width="8px" height="4px" xmlns="http://www.w3.org/2000/svg">
  <g transform="matrix(1 0 0 1 -171 -3334 )">
    <path d="M 7.63733333333333 0.0750769230769225  C 7.552 0.0750769230769225  7.47733333333333 0.104615384615384  7.41333333333333 0.163692307692308  L 4 3.23569230769231  L 0.586666666666666 0.163692307692307  C 0.522666666666666 0.104615384615384  0.447999999999999 0.0750769230769225  0.362666666666666 0.0750769230769225  C 0.277333333333333 0.0750769230769225  0.202666666666666 0.104615384615384  0.138666666666666 0.163692307692307  C 0.0746666666666661 0.22276923076923  0.0426666666666661 0.291692307692307  0.0426666666666661 0.370461538461538  C 0.0426666666666661 0.449230769230769  0.0711146666666661 0.514875076923076  0.128 0.567384615384615  L 3.76533333333333 3.83630769230769  C 3.82933333333333 3.89538461538462  3.907552 3.92492307692308  4 3.92492307692308  C 4.092448 3.92492307692308  4.17066666666667 3.89538461538462  4.23466666666667 3.83630769230769  L 7.872 0.577230769230769  C 7.92888533333333 0.518153846153846  7.95733333333333 0.447586461538462  7.95733333333333 0.365538461538461  C 7.95733333333333 0.283490461538461  7.92533333333333 0.214567384615384  7.86133333333333 0.15876923076923  C 7.79733333333333 0.102971076923076  7.72266666666667 0.0750769230769225  7.63733333333333 0.0750769230769225  Z " fill-rule="nonzero" fill="#c0c4cc" stroke="none" transform="matrix(1 0 0 1 171 3334 )" />
  </g>
</svg>