<?xml version="1.0" encoding="utf-8"?>
<svg version="1.1" xmlns:xlink="http://www.w3.org/1999/xlink" width="12px" height="6px" xmlns="http://www.w3.org/2000/svg">
  <g transform="matrix(1 0 0 1 -202 -78 )">
    <path d="M 11.456 0.112615384615384  C 11.328 0.112615384615384  11.216 0.156923076923076  11.12 0.245538461538462  L 6 4.85353846153846  L 0.879999999999999 0.245538461538461  C 0.783999999999999 0.156923076923076  0.671999999999999 0.112615384615384  0.543999999999999 0.112615384615384  C 0.415999999999999 0.112615384615384  0.303999999999999 0.156923076923076  0.207999999999999 0.245538461538461  C 0.111999999999999 0.334153846153845  0.0639999999999992 0.437538461538461  0.0639999999999992 0.555692307692307  C 0.0639999999999992 0.673846153846153  0.106671999999999 0.772312615384615  0.191999999999999 0.851076923076923  L 5.648 5.75446153846154  C 5.744 5.84307692307692  5.861328 5.88738461538462  6 5.88738461538462  C 6.138672 5.88738461538462  6.256 5.84307692307692  6.352 5.75446153846154  L 11.808 0.865846153846154  C 11.893328 0.777230769230769  11.936 0.671379692307692  11.936 0.548307692307692  C 11.936 0.425235692307691  11.888 0.321851076923077  11.792 0.238153846153845  C 11.696 0.154456615384614  11.584 0.112615384615384  11.456 0.112615384615384  Z " fill-rule="nonzero" fill="#c0c4cc" stroke="none" transform="matrix(1 0 0 1 202 78 )" />
  </g>
</svg>