<?xml version="1.0" encoding="utf-8"?>
<svg version="1.1" xmlns:xlink="http://www.w3.org/1999/xlink" width="14px" height="14px" xmlns="http://www.w3.org/2000/svg">
  <g transform="matrix(1 0 0 1 -696 -27 )">
    <path d="M 13.3392 0.1568  C 13.0704 0.0896000000000001  12.8389408 0.1530592  12.6448 0.3472  L 7 5.992  L 1.3552 0.3472  C 1.2058592 0.2128  1.0378592 0.1456  0.8512 0.1456  C 0.664540800000001 0.1456  0.5002592 0.2165408  0.3584 0.3584  C 0.216540800000001 0.5002592  0.1456 0.664540800000001  0.1456 0.8512  C 0.1456 1.0378592  0.2128 1.2058592  0.3472 1.3552  L 5.992 7  L 0.3472 12.6448  C 0.1530592 12.8389408  0.0896000000000001 13.0704  0.1568 13.3392  C 0.224 13.608  0.3882592 13.776  0.6496 13.8432  C 0.910940799999999 13.9104  1.1461408 13.8469408  1.3552 13.6528  L 7 8.008  L 12.6448 13.6528  C 12.7941408 13.7872  12.9621408 13.8544  13.1488 13.8544  C 13.3354592 13.8544  13.4997408 13.7834592  13.6416 13.6416  C 13.7834592 13.4997408  13.8544 13.3354592  13.8544 13.1488  C 13.8544 12.9621408  13.7872 12.7941408  13.6528 12.6448  L 8.008 7  L 13.6528 1.3552  C 13.8469408 1.1610592  13.9104 0.9296  13.8432 0.6608  C 13.776 0.392  13.608 0.224  13.3392 0.1568  Z " fill-rule="nonzero" fill="#c0c4cc" stroke="none" transform="matrix(1 0 0 1 696 27 )" />
  </g>
</svg>