<?xml version="1.0" encoding="utf-8"?>
<svg version="1.1" xmlns:xlink="http://www.w3.org/1999/xlink" width="9px" height="10px" xmlns="http://www.w3.org/2000/svg">
  <g transform="matrix(1 0 0 1 -728 -23 )">
    <path d="M 3.69043902439024 0.172765957446808  C 3.77268292682927 0.101843971631206  3.86868292682927 0.0663829787234045  3.97843902439024 0.0663829787234041  C 4.08819512195122 0.0663829787234045  4.18419512195122 0.101843971631206  4.26643902439024 0.172765957446808  L 8.80770731707317 4.70723404255319  C 8.8899512195122 4.78695035460993  8.93107317073171 4.8845390070922  8.93107317073171 5  C 8.93107317073171 5.1154609929078  8.8899512195122 5.21304964539007  8.80770731707317 5.29276595744681  L 4.26643902439024 9.82723404255319  C 4.18419512195122 9.8981560283688  4.08819512195122 9.9336170212766  3.97843902439024 9.9336170212766  C 3.86868292682927 9.9336170212766  3.77268292682927 9.89375886524823  3.69043902439024 9.81404255319149  C 3.60819512195122 9.73432624113475  3.56707317073171 9.64127659574468  3.56707317073171 9.53489361702128  C 3.56707317073171 9.42851063829787  3.60819512195122 9.3354609929078  3.69043902439024 9.25574468085107  L 7.97092682926829 5.0004255319149  L 3.69043902439024 0.745106382978725  C 3.60819512195122 0.665390070921988  3.56707317073171 0.572340425531917  3.56707317073171 0.465957446808513  C 3.56707317073171 0.359574468085109  3.60819512195122 0.261985815602839  3.69043902439024 0.173191489361704  Z M 0.178243902439025 0.172765957446808  C 0.260487804878049 0.101843971631206  0.356487804878049 0.0663829787234045  0.466243902439024 0.0663829787234041  C 0.576000000000001 0.0663829787234045  0.672 0.101843971631206  0.754243902439024 0.172765957446808  L 5.29551219512195 4.70723404255319  C 5.37775609756098 4.78695035460993  5.41887804878049 4.8845390070922  5.41887804878049 5  C 5.41887804878049 5.1154609929078  5.37775609756098 5.21304964539007  5.29551219512195 5.29276595744681  L 0.754243902439024 9.82723404255319  C 0.672 9.8981560283688  0.576000000000001 9.9336170212766  0.466243902439024 9.9336170212766  C 0.356487804878049 9.9336170212766  0.260487804878049 9.89375886524823  0.178243902439025 9.81404255319149  C 0.0960000000000003 9.73432624113475  0.0548780487804886 9.64127659574468  0.0548780487804882 9.53489361702128  C 0.0548780487804886 9.42851063829787  0.0960000000000003 9.3354609929078  0.178243902439025 9.25574468085107  L 4.45873170731707 5.0004255319149  L 0.178243902439025 0.745106382978725  C 0.0960000000000003 0.665390070921988  0.0548780487804886 0.572340425531917  0.0548780487804882 0.465957446808513  C 0.0548780487804886 0.359574468085109  0.0960000000000003 0.261985815602839  0.178243902439025 0.173191489361704  Z " fill-rule="nonzero" fill="#909399" stroke="none" transform="matrix(1 0 0 1 728 23 )" />
  </g>
</svg>