<?xml version="1.0" encoding="utf-8"?>
<svg version="1.1" xmlns:xlink="http://www.w3.org/1999/xlink" width="5px" height="9px" xmlns="http://www.w3.org/2000/svg">
  <g transform="matrix(1 0 0 1 -707 -24 )">
    <path d="M 0.1624 0.155489361702128  C 0.087466666666667 0.235404255319149  0.05 0.323234042553191  0.05 0.418978723404255  C 0.05 0.514723404255319  0.087466666666667 0.598468085106383  0.1624 0.670212765957447  L 4.0624 4.5  L 0.1624 8.32978723404255  C 0.0874666666666663 8.40153191489362  0.0499999999999993 8.48527659574468  0.0499999999999993 8.58102127659574  C 0.0499999999999993 8.67676595744681  0.0874666666666663 8.76051063829787  0.1624 8.83225531914893  C 0.237333333333334 8.904  0.3248 8.93987234042553  0.4248 8.93987234042553  C 0.5248 8.93987234042553  0.612266666666667 8.90795744680851  0.6872 8.84412765957447  L 4.8248 4.76310638297872  C 4.89973333333333 4.69136170212766  4.9372 4.60353191489362  4.9372 4.49961702127659  C 4.9372 4.39570212765957  4.89973333333333 4.30787234042553  4.8248 4.23612765957447  L 0.6872 0.155106382978724  C 0.612266666666667 0.0912765957446808  0.5248 0.0593617021276597  0.4248 0.0593617021276597  C 0.3248 0.0593617021276597  0.237333333333334 0.0912765957446808  0.1624 0.155106382978724  Z " fill-rule="nonzero" fill="#909399" stroke="none" transform="matrix(1 0 0 1 707 24 )" />
  </g>
</svg>