<?xml version="1.0" encoding="utf-8"?>
<svg version="1.1" xmlns:xlink="http://www.w3.org/1999/xlink" width="12px" height="14px" xmlns="http://www.w3.org/2000/svg">
  <g transform="matrix(1 0 0 1 -10 -9 )">
    <path d="M 11.1428571428571 5  L 0.857142857142857 5  L 0.857142857142857 13  L 11 13  L 11 2  L 9.42857142857143 2  L 9.42857142857143 2.5  C 9.42857142857143 2.646  9.38842857142857 2.76583333333333  9.30814285714286 2.8595  C 9.22785714285714 2.95316666666667  9.12514285714286 3  9 3  C 8.87485714285714 3  8.77214285714286 2.95316666666667  8.69185714285714 2.8595  C 8.61157142857143 2.76583333333333  8.57142857142857 2.646  8.57142857142857 2.5  L 8.57142857142857 2  L 3.42857142857143 2  L 3.42857142857143 2.5  C 3.42857142857143 2.646  3.38842857142857 2.76583333333333  3.30814285714286 2.8595  C 3.22785714285714 2.95316666666667  3.12514285714286 3  3 3  C 2.87485714285714 3  2.77214285714286 2.95316666666667  2.69185714285714 2.8595  C 2.61157142857143 2.76583333333333  2.57142857142857 2.646  2.57142857142857 2.5  L 2.57142857142857 2  L 0.857142857142857 2  L 0.857142857142857 4  L 11.1428571428571 4  L 11.1428571428571 5  Z M 3.42857142857143 0.5  L 3.42857142857143 1  L 8.57142857142857 1  L 8.57142857142857 0.5  C 8.57142857142857 0.354  8.61157142857143 0.234166666666667  8.69185714285714 0.1405  C 8.77214285714286 0.0468333333333335  8.87485714285714 0  9 0  C 9.12514285714286 0  9.22785714285714 0.0468333333333333  9.30814285714286 0.1405  C 9.38842857142857 0.234166666666667  9.42857142857143 0.354  9.42857142857143 0.5  L 9.42857142857143 1  L 11.5714285714286 1  C 11.6965714285714 1  11.7992857142857 1.04683333333333  11.8795714285714 1.1405  C 11.9598571428571 1.23416666666667  12 1.354  12 1.5  L 12 13.5  C 12 13.646  11.9598571428571 13.7658333333333  11.8795714285714 13.8595  C 11.7992857142857 13.9531666666667  11.6965714285714 14  11.5714285714286 14  L 0.428571428571429 14  C 0.303428571428571 14  0.200714285714286 13.9531666666667  0.120428571428571 13.8595  C 0.0401428571428573 13.7658333333333  0 13.646  0 13.5  L 0 1.5  C 0 1.354  0.0401428571428571 1.23416666666667  0.120428571428571 1.1405  C 0.200714285714286 1.04683333333333  0.303428571428571 1  0.428571428571429 1  L 2.57142857142857 1  L 2.57142857142857 0.5  C 2.57142857142857 0.354  2.61157142857143 0.234166666666667  2.69185714285714 0.1405  C 2.77214285714286 0.0468333333333335  2.87485714285714 0  3 0  C 3.12514285714286 0  3.22785714285714 0.0468333333333333  3.30814285714286 0.1405  C 3.38842857142857 0.234166666666667  3.42857142857143 0.354  3.42857142857143 0.5  Z M 2.69185714285714 7.1405  C 2.77214285714286 7.04683333333333  2.87485714285714 7  3 7  L 3.85714285714286 7  C 3.98228571428572 7  4.085 7.04683333333333  4.16528571428571 7.1405  C 4.24557142857143 7.23416666666667  4.28571428571429 7.354  4.28571428571429 7.5  C 4.28571428571429 7.646  4.24557142857143 7.76583333333334  4.16528571428571 7.8595  C 4.085 7.95316666666667  3.98228571428571 8  3.85714285714286 8  L 3 8  C 2.87485714285714 8  2.77214285714286 7.95316666666667  2.69185714285714 7.8595  C 2.61157142857143 7.76583333333334  2.57142857142857 7.646  2.57142857142857 7.5  C 2.57142857142857 7.354  2.61157142857143 7.23416666666667  2.69185714285714 7.1405  Z M 2.69185714285714 10.1405  C 2.77214285714286 10.0468333333333  2.87485714285714 10  3 10  L 3.85714285714286 10  C 3.98228571428572 10  4.085 10.0468333333333  4.16528571428571 10.1405  C 4.24557142857143 10.2341666666667  4.28571428571429 10.354  4.28571428571429 10.5  C 4.28571428571429 10.646  4.24557142857143 10.7658333333333  4.16528571428571 10.8595  C 4.085 10.9531666666667  3.98228571428571 11  3.85714285714286 11  L 3 11  C 2.87485714285714 11  2.77214285714286 10.9531666666667  2.69185714285714 10.8595  C 2.61157142857143 10.7658333333333  2.57142857142857 10.646  2.57142857142857 10.5  C 2.57142857142857 10.354  2.61157142857143 10.2341666666667  2.69185714285714 10.1405  Z M 5.26328571428571 7.1405  C 5.34357142857143 7.04683333333333  5.44628571428572 7  5.57142857142857 7  L 6.42857142857143 7  C 6.55371428571429 7  6.65642857142857 7.04683333333333  6.73671428571429 7.1405  C 6.817 7.23416666666667  6.85714285714286 7.354  6.85714285714286 7.5  C 6.85714285714286 7.646  6.817 7.76583333333334  6.73671428571429 7.8595  C 6.65642857142857 7.95316666666667  6.55371428571429 8  6.42857142857143 8  L 5.57142857142857 8  C 5.44628571428571 8  5.34357142857143 7.95316666666667  5.26328571428571 7.8595  C 5.183 7.76583333333334  5.14285714285714 7.646  5.14285714285714 7.5  C 5.14285714285714 7.354  5.183 7.23416666666667  5.26328571428571 7.1405  Z M 5.26328571428571 10.1405  C 5.34357142857143 10.0468333333333  5.44628571428572 10  5.57142857142857 10  L 6.42857142857143 10  C 6.55371428571429 10  6.65642857142857 10.0468333333333  6.73671428571429 10.1405  C 6.817 10.2341666666667  6.85714285714286 10.354  6.85714285714286 10.5  C 6.85714285714286 10.646  6.817 10.7658333333333  6.73671428571429 10.8595  C 6.65642857142857 10.9531666666667  6.55371428571429 11  6.42857142857143 11  L 5.57142857142857 11  C 5.44628571428571 11  5.34357142857143 10.9531666666667  5.26328571428571 10.8595  C 5.183 10.7658333333333  5.14285714285714 10.646  5.14285714285714 10.5  C 5.14285714285714 10.354  5.183 10.2341666666667  5.26328571428571 10.1405  Z M 7.83471428571428 7.1405  C 7.915 7.04683333333333  8.01771428571428 7  8.14285714285714 7  L 9 7  C 9.12514285714286 7  9.22785714285714 7.04683333333333  9.30814285714286 7.1405  C 9.38842857142857 7.23416666666667  9.42857142857143 7.354  9.42857142857143 7.5  C 9.42857142857143 7.646  9.38842857142857 7.76583333333334  9.30814285714286 7.8595  C 9.22785714285715 7.95316666666667  9.12514285714286 8  9 8  L 8.14285714285714 8  C 8.01771428571429 8  7.915 7.95316666666667  7.83471428571428 7.8595  C 7.75442857142857 7.76583333333334  7.71428571428572 7.646  7.71428571428572 7.5  C 7.71428571428572 7.354  7.75442857142857 7.23416666666667  7.83471428571428 7.1405  Z M 7.83471428571428 10.1405  C 7.915 10.0468333333333  8.01771428571428 10  8.14285714285714 10  L 9 10  C 9.12514285714286 10  9.22785714285714 10.0468333333333  9.30814285714286 10.1405  C 9.38842857142857 10.2341666666667  9.42857142857143 10.354  9.42857142857143 10.5  C 9.42857142857143 10.646  9.38842857142857 10.7658333333333  9.30814285714286 10.8595  C 9.22785714285715 10.9531666666667  9.12514285714286 11  9 11  L 8.14285714285714 11  C 8.01771428571429 11  7.915 10.9531666666667  7.83471428571428 10.8595  C 7.75442857142857 10.7658333333333  7.71428571428572 10.646  7.71428571428572 10.5  C 7.71428571428572 10.354  7.75442857142857 10.2341666666667  7.83471428571428 10.1405  Z " fill-rule="nonzero" fill="#c0c4cc" stroke="none" transform="matrix(1 0 0 1 10 9 )" />
  </g>
</svg>