<?xml version="1.0" encoding="utf-8"?>
<svg version="1.1" xmlns:xlink="http://www.w3.org/1999/xlink" width="114px" height="116px" xmlns="http://www.w3.org/2000/svg">
  <defs>
    <mask fill="white" id="clip13">
      <path d="M 0 112.133333333333  L 0 3.86666666666667  C 0 1.70133333333333  1.79142857142857 0  4.07142857142857 0  L 109.928571428571 0  C 112.208571428571 0  114 1.70133333333333  114 3.86666666666667  L 114 112.133333333333  C 114 114.298666666667  112.208571428571 116  109.928571428571 116  L 79.3928571428571 116  L 4.07142857142857 116  C 1.79142857142857 116  0 114.298666666667  0 112.133333333333  Z " fill-rule="evenodd" />
    </mask>
  </defs>
  <g transform="matrix(1 0 0 1 0 -2 )">
    <path d="M 0 112.133333333333  L 0 3.86666666666667  C 0 1.70133333333333  1.79142857142857 0  4.07142857142857 0  L 109.928571428571 0  C 112.208571428571 0  114 1.70133333333333  114 3.86666666666667  L 114 112.133333333333  C 114 114.298666666667  112.208571428571 116  109.928571428571 116  L 79.3928571428571 116  L 4.07142857142857 116  C 1.79142857142857 116  0 114.298666666667  0 112.133333333333  Z " fill-rule="nonzero" fill="#ffffff" stroke="none" fill-opacity="0" transform="matrix(1 0 0 1 0 2 )" />
    <path d="M 0 112.133333333333  L 0 3.86666666666667  C 0 1.70133333333333  1.79142857142857 0  4.07142857142857 0  L 109.928571428571 0  C 112.208571428571 0  114 1.70133333333333  114 3.86666666666667  L 114 112.133333333333  C 114 114.298666666667  112.208571428571 116  109.928571428571 116  L 79.3928571428571 116  L 4.07142857142857 116  C 1.79142857142857 116  0 114.298666666667  0 112.133333333333  Z " stroke-width="2" stroke="#e4e7ed" fill="none" transform="matrix(1 0 0 1 0 2 )" mask="url(#clip13)" />
  </g>
</svg>