<?xml version="1.0" encoding="utf-8"?>
<svg version="1.1" xmlns:xlink="http://www.w3.org/1999/xlink" width="14px" height="14px" xmlns="http://www.w3.org/2000/svg">
  <g transform="matrix(1 0 0 1 -314 -10 )">
    <path d="M 4.89903448275862 8.39034482758621  L 6.3048275862069 7  L 4.89903448275862 5.60965517241379  C 4.80634482758621 5.50666151724138  4.76 5.38823503448276  4.76 5.25434482758621  C 4.76 5.12045462068965  4.80892468965517 5.00459255172414  4.90675862068966 4.90675862068966  C 5.00459255172414 4.80892468965517  5.12045462068965 4.76  5.25434482758621 4.76  C 5.38823503448276 4.76  5.50666151724138 4.80634482758621  5.60965517241379 4.89903448275862  L 7 6.3048275862069  L 8.39034482758621 4.89903448275862  C 8.5345235862069 4.76514427586207  8.69673048275862 4.72395917241379  8.87696551724138 4.77544827586207  C 9.05720055172414 4.82693737931034  9.17306262068966 4.94279944827586  9.22455172413793 5.12303448275862  C 9.27604082758621 5.30326951724138  9.23485572413793 5.4654764137931  9.10096551724138 5.60965517241379  L 7.6951724137931 7  L 9.10096551724138 8.39034482758621  C 9.23485572413793 8.5345235862069  9.27604082758621 8.69673048275862  9.22455172413793 8.87696551724138  C 9.17306262068965 9.05720055172414  9.05720055172414 9.17306262068966  8.87696551724138 9.22455172413793  C 8.69673048275862 9.27604082758621  8.53452358620689 9.23485572413793  8.39034482758621 9.10096551724138  L 7 7.6951724137931  L 5.60965517241379 9.10096551724138  C 5.50666151724138 9.19365517241379  5.38823503448276 9.24  5.25434482758621 9.24  C 5.12045462068965 9.24  5.00459255172414 9.19107531034483  4.90675862068966 9.09324137931034  C 4.80892468965517 8.99540744827586  4.76 8.87954537931034  4.76 8.74565517241379  C 4.76 8.61176496551724  4.80634482758621 8.49333848275862  4.89903448275862 8.39034482758621  Z M 2.80579310344828 11.1942068965517  C 3.92321324137931 12.3116270344828  5.32128220689655 12.8909373793103  7 12.9321379310345  C 8.67871779310345 12.8909373793103  10.0767867586207 12.3116270344828  11.1942068965517 11.1942068965517  C 12.3116270344828 10.0767867586207  12.8909373793103 8.67871779310345  12.9321379310345 7  C 12.8909373793103 5.32128220689655  12.3116270344828 3.92321324137931  11.1942068965517 2.80579310344828  C 10.0767867586207 1.68837296551724  8.67871779310345 1.10906262068966  7 1.06786206896552  C 5.32128220689655 1.10906262068966  3.92321324137931 1.68837296551724  2.80579310344828 2.80579310344828  C 1.68837296551724 3.92321324137931  1.10906262068966 5.32128220689655  1.06786206896552 7  C 1.10906262068966 8.67871779310345  1.68837296551724 10.0767867586207  2.80579310344828 11.1942068965517  Z M 11.8893793103448 11.8893793103448  C 10.586579862069 13.1921787586207  8.95678675862069 13.8693384827586  7 13.9208275862069  C 5.04321324137931 13.8693384827586  3.41342013793103 13.1921787586207  2.11062068965517 11.8893793103448  C 0.80782124137931 10.586579862069  0.130661517241379 8.95678675862069  0.0791724137931034 7  C 0.130661517241379 5.04321324137931  0.80782124137931 3.41342013793103  2.11062068965517 2.11062068965517  C 3.41342013793103 0.80782124137931  5.04321324137931 0.130661517241379  7 0.0791724137931034  C 8.95678675862069 0.130661517241379  10.586579862069 0.80782124137931  11.8893793103448 2.11062068965517  C 13.1921787586207 3.41342013793103  13.8693384827586 5.04321324137931  13.9208275862069 7  C 13.8693384827586 8.95678675862069  13.1921787586207 10.586579862069  11.8893793103448 11.8893793103448  Z " fill-rule="nonzero" fill="#c0c4cc" stroke="none" transform="matrix(1 0 0 1 314 10 )" />
  </g>
</svg>