<?xml version="1.0" encoding="utf-8"?>
<svg version="1.1" xmlns:xlink="http://www.w3.org/1999/xlink" width="13px" height="12px" xmlns="http://www.w3.org/2000/svg">
  <g transform="matrix(1 0 0 1 -198 -10 )">
    <path d="M 4.54910344827586 7.19172413793103  L 5.85448275862069 6  L 4.54910344827586 4.80827586206897  C 4.46303448275862 4.7199955862069  4.42 4.61848717241379  4.42 4.50372413793103  C 4.42 4.38896110344828  4.46543006896552 4.28965075862069  4.55627586206897 4.20579310344828  C 4.64712165517241 4.12193544827586  4.75470786206897 4.08  4.87903448275862 4.08  C 5.00336110344828 4.08  5.11332855172414 4.11972413793103  5.20896551724138 4.1991724137931  L 6.5 5.40413793103448  L 7.79103448275862 4.1991724137931  C 7.92491475862069 4.08440937931034  8.07553544827586 4.04910786206897  8.24289655172414 4.09324137931034  C 8.41025765517241 4.13737489655172  8.51784386206897 4.23668524137931  8.56565517241379 4.3911724137931  C 8.61346648275862 4.5456595862069  8.57522317241379 4.68469406896552  8.45089655172414 4.80827586206897  L 7.14551724137931 6  L 8.45089655172414 7.19172413793103  C 8.57522317241379 7.31530593103448  8.61346648275862 7.4543404137931  8.56565517241379 7.6088275862069  C 8.51784386206896 7.76331475862069  8.41025765517241 7.86262510344828  8.24289655172414 7.90675862068965  C 8.07553544827586 7.95089213793103  7.92491475862069 7.91559062068965  7.79103448275862 7.80082758620689  L 6.5 6.59586206896552  L 5.20896551724138 7.80082758620689  C 5.11332855172414 7.88027586206896  5.00336110344828 7.92  4.87903448275862 7.92  C 4.75470786206897 7.92  4.64712165517241 7.87806455172414  4.55627586206897 7.79420689655172  C 4.46543006896552 7.71034924137931  4.42 7.61103889655172  4.42 7.49627586206897  C 4.42 7.38151282758621  4.46303448275862 7.2800044137931  4.54910344827586 7.19172413793103  Z M 2.60537931034483 9.59503448275862  C 3.64298372413793 10.5528231724138  4.94119062068966 11.0493748965517  6.5 11.0846896551724  C 8.05880937931034 11.0493748965517  9.35701627586207 10.5528231724138  10.3946206896552 9.59503448275862  C 11.4322251034483 8.63724579310345  11.970156137931 7.43890096551724  12.0084137931034 6  C 11.970156137931 4.56109903448276  11.4322251034483 3.36275420689655  10.3946206896552 2.40496551724138  C 9.35701627586207 1.44717682758621  8.05880937931034 0.950625103448276  6.5 0.915310344827586  C 4.94119062068966 0.950625103448276  3.64298372413793 1.44717682758621  2.60537931034483 2.40496551724138  C 1.56777489655172 3.36275420689655  1.02984386206897 4.56109903448276  0.991586206896552 6  C 1.02984386206897 7.43890096551724  1.56777489655172 8.63724579310345  2.60537931034483 9.59503448275862  Z M 11.0401379310345 10.1908965517241  C 9.8303955862069 11.3075817931034  8.31701627586207 11.8880044137931  6.5 11.9321379310345  C 4.68298372413793 11.8880044137931  3.1696044137931 11.3075817931034  1.95986206896552 10.1908965517241  C 0.750119724137931 9.07421131034483  0.121328551724138 7.67724579310345  0.0735172413793103 6  C 0.121328551724138 4.32275420689655  0.750119724137931 2.92578868965517  1.95986206896552 1.80910344827586  C 3.1696044137931 0.692418206896552  4.68298372413793 0.111995586206897  6.5 0.0678620689655172  C 8.31701627586207 0.111995586206897  9.8303955862069 0.692418206896552  11.0401379310345 1.80910344827586  C 12.2498802758621 2.92578868965517  12.8786714482759 4.32275420689655  12.9264827586207 6  C 12.8786714482759 7.67724579310345  12.2498802758621 9.07421131034483  11.0401379310345 10.1908965517241  Z " fill-rule="nonzero" fill="#c0c4cc" stroke="none" transform="matrix(1 0 0 1 198 10 )" />
  </g>
</svg>